<mxfile host="app.diagrams.net" modified="2021-10-25T09:06:33.023Z" agent="5.0 (Windows NT 10.0; Win64; x64) AppleWebKit/537.36 (KHTML, like Gecko) Chrome/95.0.4638.54 Safari/537.36" etag="sygbEvoJKScGbhV9MZ6X" version="15.5.9" type="github" pages="13">
  <diagram id="C5RBs43oDa-KdzZeNtuy" name="Page-1">
    <mxGraphModel dx="782" dy="436" grid="1" gridSize="10" guides="1" tooltips="1" connect="1" arrows="1" fold="1" page="1" pageScale="1" pageWidth="827" pageHeight="1169" math="0" shadow="0">
      <root>
        <mxCell id="WIyWlLk6GJQsqaUBKTNV-0" />
        <mxCell id="WIyWlLk6GJQsqaUBKTNV-1" parent="WIyWlLk6GJQsqaUBKTNV-0" />
        <mxCell id="s_amVBwDyxbbMURKweug-10" value="&lt;p style=&quot;margin: 0px ; margin-top: 4px ; text-align: center&quot;&gt;&lt;i&gt;&amp;lt;&amp;lt;Enumeration&amp;gt;&amp;gt;&lt;/i&gt;&lt;br&gt;&lt;b&gt;Ticket&lt;/b&gt;&lt;/p&gt;&lt;hr size=&quot;1&quot;&gt;&lt;p style=&quot;margin: 0px ; margin-left: 4px&quot;&gt;ADULT(price)&lt;/p&gt;&lt;p style=&quot;margin: 0px ; margin-left: 4px&quot;&gt;REDUCED(price)&lt;/p&gt;&lt;p style=&quot;margin: 0px ; margin-left: 4px&quot;&gt;SEASON_PASS(price)&lt;/p&gt;" style="verticalAlign=top;align=left;overflow=fill;fontSize=12;fontFamily=Helvetica;html=1;" parent="WIyWlLk6GJQsqaUBKTNV-1" vertex="1">
          <mxGeometry x="501" y="123" width="140" height="110" as="geometry" />
        </mxCell>
        <mxCell id="s_amVBwDyxbbMURKweug-12" value="PersonTicket" style="swimlane;fontStyle=1;align=center;verticalAlign=top;childLayout=stackLayout;horizontal=1;startSize=26;horizontalStack=0;resizeParent=1;resizeParentMax=0;resizeLast=0;collapsible=1;marginBottom=0;" parent="WIyWlLk6GJQsqaUBKTNV-1" vertex="1">
          <mxGeometry x="140" y="91" width="220" height="180" as="geometry">
            <mxRectangle x="280" y="310" width="110" height="26" as="alternateBounds" />
          </mxGeometry>
        </mxCell>
        <mxCell id="s_amVBwDyxbbMURKweug-13" value="- AGE_MIN : int = 2&#xa;- AGE_MAX : int = 95&#xa;- AGE_MAX_REDUCED : int = 12&#xa;- AGE_MIN_REDUCED : int = 65&#xa;&#xa;" style="text;strokeColor=none;fillColor=none;align=left;verticalAlign=top;spacingLeft=4;spacingRight=4;overflow=hidden;rotatable=0;points=[[0,0.5],[1,0.5]];portConstraint=eastwest;" parent="s_amVBwDyxbbMURKweug-12" vertex="1">
          <mxGeometry y="26" width="220" height="64" as="geometry" />
        </mxCell>
        <mxCell id="s_amVBwDyxbbMURKweug-14" value="" style="line;strokeWidth=1;fillColor=none;align=left;verticalAlign=middle;spacingTop=-1;spacingLeft=3;spacingRight=3;rotatable=0;labelPosition=right;points=[];portConstraint=eastwest;" parent="s_amVBwDyxbbMURKweug-12" vertex="1">
          <mxGeometry y="90" width="220" height="10" as="geometry" />
        </mxCell>
        <mxCell id="s_amVBwDyxbbMURKweug-15" value="+ PersonTicket()&#xa;+ randAge() : int&#xa;+ getAge() : int&#xa;+ getTicket() : Ticket&#xa;+ randTicket() : Ticket" style="text;strokeColor=none;fillColor=none;align=left;verticalAlign=top;spacingLeft=4;spacingRight=4;overflow=hidden;rotatable=0;points=[[0,0.5],[1,0.5]];portConstraint=eastwest;" parent="s_amVBwDyxbbMURKweug-12" vertex="1">
          <mxGeometry y="100" width="220" height="80" as="geometry" />
        </mxCell>
        <mxCell id="ejHYscB8wFtfuVKHaAPt-3" value="" style="endArrow=diamondThin;endFill=0;endSize=24;html=1;rounded=0;exitX=0;exitY=0.5;exitDx=0;exitDy=0;entryX=1;entryY=0.5;entryDx=0;entryDy=0;" parent="WIyWlLk6GJQsqaUBKTNV-1" source="s_amVBwDyxbbMURKweug-10" edge="1">
          <mxGeometry width="160" relative="1" as="geometry">
            <mxPoint x="251" y="220" as="sourcePoint" />
            <mxPoint x="361" y="178" as="targetPoint" />
          </mxGeometry>
        </mxCell>
      </root>
    </mxGraphModel>
  </diagram>
  <diagram id="lwhxWUkI1UaWnT3TyDwM" name="Page-2">
    <mxGraphModel dx="1609" dy="436" grid="1" gridSize="10" guides="1" tooltips="1" connect="1" arrows="1" fold="1" page="1" pageScale="1" pageWidth="827" pageHeight="1169" math="0" shadow="0">
      <root>
        <mxCell id="XTCG32vxjOVW7I2GXwVS-0" />
        <mxCell id="XTCG32vxjOVW7I2GXwVS-1" parent="XTCG32vxjOVW7I2GXwVS-0" />
        <mxCell id="Ga_t6konEq1_4bIeKppy-0" value="&lt;p style=&quot;margin: 0px ; margin-top: 4px ; text-align: center&quot;&gt;&lt;i&gt;&amp;lt;&amp;lt;Interface&amp;gt;&amp;gt;&lt;/i&gt;&lt;br&gt;&lt;b&gt;Environment&lt;/b&gt;&lt;/p&gt;&lt;hr size=&quot;1&quot;&gt;&lt;p style=&quot;margin: 0px ; margin-left: 4px&quot;&gt;+ peopleEntrance(PersonTicket) : void&lt;/p&gt;&lt;p style=&quot;margin: 0px ; margin-left: 4px&quot;&gt;+ exitPeople() : void&lt;/p&gt;&lt;p style=&quot;margin: 0px ; margin-left: 4px&quot;&gt;+getPersonList() : List&amp;lt;&amp;gt;&lt;/p&gt;&lt;p style=&quot;margin: 0px ; margin-left: 4px&quot;&gt;+getEntranceProfit : List&amp;lt;&amp;gt;&lt;/p&gt;&lt;p style=&quot;margin: 0px ; margin-left: 4px&quot;&gt;+getEntrance: EntranceImpl&lt;/p&gt;" style="verticalAlign=top;align=left;overflow=fill;fontSize=12;fontFamily=Helvetica;html=1;" parent="XTCG32vxjOVW7I2GXwVS-1" vertex="1">
          <mxGeometry x="-10" y="440" width="220" height="120" as="geometry" />
        </mxCell>
        <mxCell id="Ga_t6konEq1_4bIeKppy-1" value="EnvironmentImpl" style="swimlane;fontStyle=1;align=center;verticalAlign=top;childLayout=stackLayout;horizontal=1;startSize=26;horizontalStack=0;resizeParent=1;resizeParentMax=0;resizeLast=0;collapsible=1;marginBottom=0;" parent="XTCG32vxjOVW7I2GXwVS-1" vertex="1">
          <mxGeometry x="340" y="440" width="200" height="116" as="geometry" />
        </mxCell>
        <mxCell id="Ga_t6konEq1_4bIeKppy-3" value="" style="line;strokeWidth=1;fillColor=none;align=left;verticalAlign=middle;spacingTop=-1;spacingLeft=3;spacingRight=3;rotatable=0;labelPosition=right;points=[];portConstraint=eastwest;" parent="Ga_t6konEq1_4bIeKppy-1" vertex="1">
          <mxGeometry y="26" width="200" height="8" as="geometry" />
        </mxCell>
        <mxCell id="Ga_t6konEq1_4bIeKppy-4" value="+ peopleEntrance(PersonTicket) : void&#xa;+ exitPeople() : void&#xa;+getPersonList() : List&lt;&gt;&#xa;+getEntranceProfit : List&lt;&gt;&#xa;+getEntrance: EntranceImpl" style="text;strokeColor=none;fillColor=none;align=left;verticalAlign=top;spacingLeft=4;spacingRight=4;overflow=hidden;rotatable=0;points=[[0,0.5],[1,0.5]];portConstraint=eastwest;" parent="Ga_t6konEq1_4bIeKppy-1" vertex="1">
          <mxGeometry y="34" width="200" height="82" as="geometry" />
        </mxCell>
        <mxCell id="Ga_t6konEq1_4bIeKppy-5" value="" style="endArrow=block;dashed=1;endFill=0;endSize=12;html=1;rounded=0;entryX=1;entryY=0.5;entryDx=0;entryDy=0;exitX=-0.006;exitY=0.778;exitDx=0;exitDy=0;exitPerimeter=0;" parent="XTCG32vxjOVW7I2GXwVS-1" target="Ga_t6konEq1_4bIeKppy-0" edge="1">
          <mxGeometry width="160" relative="1" as="geometry">
            <mxPoint x="338.8000000000002" y="500.23199999999997" as="sourcePoint" />
            <mxPoint x="490" y="470" as="targetPoint" />
          </mxGeometry>
        </mxCell>
        <mxCell id="Ga_t6konEq1_4bIeKppy-6" value="&lt;p style=&quot;margin: 0px ; margin-top: 4px ; text-align: center&quot;&gt;&lt;i&gt;&amp;lt;&amp;lt;Interface&amp;gt;&amp;gt;&lt;/i&gt;&lt;br&gt;&lt;b&gt;Entrance&lt;/b&gt;&lt;/p&gt;&lt;hr size=&quot;1&quot;&gt;&lt;p style=&quot;margin: 0px ; margin-left: 4px&quot;&gt;+ addPerson(PersonTicket) : void&lt;/p&gt;&lt;p style=&quot;margin: 0px ; margin-left: 4px&quot;&gt;+ getProfit() : int&lt;/p&gt;&lt;p style=&quot;margin: 0px ; margin-left: 4px&quot;&gt;+ getNumTickets() : int&lt;/p&gt;&lt;p style=&quot;margin: 0px ; margin-left: 4px&quot;&gt;+ getAdultProfit() : int&lt;/p&gt;&lt;p style=&quot;margin: 0px ; margin-left: 4px&quot;&gt;+getReducedProfit() : int&lt;/p&gt;&lt;p style=&quot;margin: 0px ; margin-left: 4px&quot;&gt;+getPassProfit() : int&lt;/p&gt;&lt;p style=&quot;margin: 0px ; margin-left: 4px&quot;&gt;&lt;br&gt;&lt;/p&gt;" style="verticalAlign=top;align=left;overflow=fill;fontSize=12;fontFamily=Helvetica;html=1;" parent="XTCG32vxjOVW7I2GXwVS-1" vertex="1">
          <mxGeometry x="-20" y="696" width="220" height="130" as="geometry" />
        </mxCell>
        <mxCell id="Ga_t6konEq1_4bIeKppy-7" value="EntranceImpl" style="swimlane;fontStyle=1;align=center;verticalAlign=top;childLayout=stackLayout;horizontal=1;startSize=26;horizontalStack=0;resizeParent=1;resizeParentMax=0;resizeLast=0;collapsible=1;marginBottom=0;" parent="XTCG32vxjOVW7I2GXwVS-1" vertex="1">
          <mxGeometry x="331" y="680" width="200" height="132" as="geometry" />
        </mxCell>
        <mxCell id="Ga_t6konEq1_4bIeKppy-9" value="" style="line;strokeWidth=1;fillColor=none;align=left;verticalAlign=middle;spacingTop=-1;spacingLeft=3;spacingRight=3;rotatable=0;labelPosition=right;points=[];portConstraint=eastwest;" parent="Ga_t6konEq1_4bIeKppy-7" vertex="1">
          <mxGeometry y="26" width="200" height="8" as="geometry" />
        </mxCell>
        <mxCell id="Ga_t6konEq1_4bIeKppy-10" value="+ addPerson(PersonTicket) : void&#xa;+ getProfit() : int&#xa;+ getNumTickets() : int&#xa;+ getAdultProfit() : int&#xa;+getReducedProfit() : int&#xa;+getPassProfit() : int" style="text;strokeColor=none;fillColor=none;align=left;verticalAlign=top;spacingLeft=4;spacingRight=4;overflow=hidden;rotatable=0;points=[[0,0.5],[1,0.5]];portConstraint=eastwest;" parent="Ga_t6konEq1_4bIeKppy-7" vertex="1">
          <mxGeometry y="34" width="200" height="98" as="geometry" />
        </mxCell>
        <mxCell id="Ga_t6konEq1_4bIeKppy-11" value="" style="endArrow=block;dashed=1;endFill=0;endSize=12;html=1;rounded=0;entryX=1;entryY=0.5;entryDx=0;entryDy=0;exitX=0;exitY=0.5;exitDx=0;exitDy=0;" parent="XTCG32vxjOVW7I2GXwVS-1" source="Ga_t6konEq1_4bIeKppy-10" target="Ga_t6konEq1_4bIeKppy-6" edge="1">
          <mxGeometry width="160" relative="1" as="geometry">
            <mxPoint x="330" y="788" as="sourcePoint" />
            <mxPoint x="370" y="510" as="targetPoint" />
            <Array as="points" />
          </mxGeometry>
        </mxCell>
        <mxCell id="Ga_t6konEq1_4bIeKppy-12" value="" style="endArrow=none;html=1;edgeStyle=orthogonalEdgeStyle;rounded=0;exitX=0.5;exitY=0;exitDx=0;exitDy=0;entryX=0.482;entryY=1.003;entryDx=0;entryDy=0;entryPerimeter=0;" parent="XTCG32vxjOVW7I2GXwVS-1" source="Ga_t6konEq1_4bIeKppy-7" target="Ga_t6konEq1_4bIeKppy-4" edge="1">
          <mxGeometry relative="1" as="geometry">
            <mxPoint x="200" y="540" as="sourcePoint" />
            <mxPoint x="360" y="540" as="targetPoint" />
            <Array as="points">
              <mxPoint x="436" y="680" />
              <mxPoint x="436" y="640" />
              <mxPoint x="436" y="640" />
            </Array>
          </mxGeometry>
        </mxCell>
        <mxCell id="Ga_t6konEq1_4bIeKppy-13" value="&lt;p style=&quot;margin: 0px ; margin-top: 4px ; text-align: center&quot;&gt;&lt;i&gt;&amp;lt;&amp;lt;Interface&amp;gt;&amp;gt;&lt;/i&gt;&lt;br&gt;&lt;b&gt;Open&lt;/b&gt;&lt;/p&gt;&lt;hr size=&quot;1&quot;&gt;&lt;p style=&quot;margin: 0px ; margin-left: 4px&quot;&gt;+ firstEntrance() : void&lt;/p&gt;&lt;p style=&quot;margin: 0px ; margin-left: 4px&quot;&gt;&lt;br&gt;&lt;/p&gt;" style="verticalAlign=top;align=left;overflow=fill;fontSize=12;fontFamily=Helvetica;html=1;" parent="XTCG32vxjOVW7I2GXwVS-1" vertex="1">
          <mxGeometry x="-20" y="189" width="220" height="70" as="geometry" />
        </mxCell>
        <mxCell id="Ga_t6konEq1_4bIeKppy-14" value="OpenImpl" style="swimlane;fontStyle=1;align=center;verticalAlign=top;childLayout=stackLayout;horizontal=1;startSize=26;horizontalStack=0;resizeParent=1;resizeParentMax=0;resizeLast=0;collapsible=1;marginBottom=0;" parent="XTCG32vxjOVW7I2GXwVS-1" vertex="1">
          <mxGeometry x="340" y="160" width="200" height="84" as="geometry" />
        </mxCell>
        <mxCell id="Ga_t6konEq1_4bIeKppy-16" value="" style="line;strokeWidth=1;fillColor=none;align=left;verticalAlign=middle;spacingTop=-1;spacingLeft=3;spacingRight=3;rotatable=0;labelPosition=right;points=[];portConstraint=eastwest;" parent="Ga_t6konEq1_4bIeKppy-14" vertex="1">
          <mxGeometry y="26" width="200" height="8" as="geometry" />
        </mxCell>
        <mxCell id="Ga_t6konEq1_4bIeKppy-17" value="+ OpenImpl()&#xa;+ firstEntrance() : void" style="text;strokeColor=none;fillColor=none;align=left;verticalAlign=top;spacingLeft=4;spacingRight=4;overflow=hidden;rotatable=0;points=[[0,0.5],[1,0.5]];portConstraint=eastwest;" parent="Ga_t6konEq1_4bIeKppy-14" vertex="1">
          <mxGeometry y="34" width="200" height="50" as="geometry" />
        </mxCell>
        <mxCell id="Ga_t6konEq1_4bIeKppy-18" value="" style="endArrow=block;dashed=1;endFill=0;endSize=12;html=1;rounded=0;entryX=1;entryY=0.5;entryDx=0;entryDy=0;" parent="XTCG32vxjOVW7I2GXwVS-1" edge="1">
          <mxGeometry width="160" relative="1" as="geometry">
            <mxPoint x="340" y="223" as="sourcePoint" />
            <mxPoint x="200" y="223" as="targetPoint" />
          </mxGeometry>
        </mxCell>
        <mxCell id="Ga_t6konEq1_4bIeKppy-19" value="" style="endArrow=none;html=1;edgeStyle=orthogonalEdgeStyle;rounded=0;entryX=0.5;entryY=0;entryDx=0;entryDy=0;exitX=0.499;exitY=0.986;exitDx=0;exitDy=0;exitPerimeter=0;" parent="XTCG32vxjOVW7I2GXwVS-1" source="Ga_t6konEq1_4bIeKppy-17" target="Ga_t6konEq1_4bIeKppy-1" edge="1">
          <mxGeometry relative="1" as="geometry">
            <mxPoint x="440" y="290" as="sourcePoint" />
            <mxPoint x="440" y="430" as="targetPoint" />
            <Array as="points" />
          </mxGeometry>
        </mxCell>
      </root>
    </mxGraphModel>
  </diagram>
  <diagram id="NPmI4ERtKlRgcud68FoS" name="Page-3">
    <mxGraphModel dx="782" dy="436" grid="1" gridSize="10" guides="1" tooltips="1" connect="1" arrows="1" fold="1" page="1" pageScale="1" pageWidth="827" pageHeight="1169" math="0" shadow="0">
      <root>
        <mxCell id="EMEBmPivCi-tZ2R8giL_-0" />
        <mxCell id="EMEBmPivCi-tZ2R8giL_-1" parent="EMEBmPivCi-tZ2R8giL_-0" />
        <mxCell id="EMEBmPivCi-tZ2R8giL_-2" value="PersonIntoPark" style="swimlane;fontStyle=1;align=center;verticalAlign=top;childLayout=stackLayout;horizontal=1;startSize=26;horizontalStack=0;resizeParent=1;resizeParentMax=0;resizeLast=0;collapsible=1;marginBottom=0;" parent="EMEBmPivCi-tZ2R8giL_-1" vertex="1">
          <mxGeometry x="270" y="420" width="260" height="166" as="geometry" />
        </mxCell>
        <mxCell id="EMEBmPivCi-tZ2R8giL_-3" value="- PERSON_RECIRCULATION : int = 4000&#xa;" style="text;strokeColor=none;fillColor=none;align=left;verticalAlign=top;spacingLeft=4;spacingRight=4;overflow=hidden;rotatable=0;points=[[0,0.5],[1,0.5]];portConstraint=eastwest;" parent="EMEBmPivCi-tZ2R8giL_-2" vertex="1">
          <mxGeometry y="26" width="260" height="24" as="geometry" />
        </mxCell>
        <mxCell id="EMEBmPivCi-tZ2R8giL_-4" value="" style="line;strokeWidth=1;fillColor=none;align=left;verticalAlign=middle;spacingTop=-1;spacingLeft=3;spacingRight=3;rotatable=0;labelPosition=right;points=[];portConstraint=eastwest;" parent="EMEBmPivCi-tZ2R8giL_-2" vertex="1">
          <mxGeometry y="50" width="260" height="8" as="geometry" />
        </mxCell>
        <mxCell id="EMEBmPivCi-tZ2R8giL_-5" value="+ PersonIntoPark(EnvironmentControllerImpl)&#xa;+ getPeopleIntoPark() : int&#xa;+ incPeopleIntoPark : void&#xa;+ decPeopleIntoPark : void&#xa;+ run() : void&#xa;+ logics() : void&#xa;+ getEnvironment() : EnvironmentImpl&#xa;" style="text;strokeColor=none;fillColor=none;align=left;verticalAlign=top;spacingLeft=4;spacingRight=4;overflow=hidden;rotatable=0;points=[[0,0.5],[1,0.5]];portConstraint=eastwest;" parent="EMEBmPivCi-tZ2R8giL_-2" vertex="1">
          <mxGeometry y="58" width="260" height="108" as="geometry" />
        </mxCell>
        <mxCell id="EMEBmPivCi-tZ2R8giL_-6" value="ActivityRide" style="swimlane;fontStyle=1;align=center;verticalAlign=top;childLayout=stackLayout;horizontal=1;startSize=26;horizontalStack=0;resizeParent=1;resizeParentMax=0;resizeLast=0;collapsible=1;marginBottom=0;" parent="EMEBmPivCi-tZ2R8giL_-1" vertex="1">
          <mxGeometry x="160" y="700" width="460" height="126" as="geometry" />
        </mxCell>
        <mxCell id="EMEBmPivCi-tZ2R8giL_-7" value="- FIRST_PERSON : int = 0 &#xa;- SLEEP : int = 500&#xa;- MAX_PROFIT : int = 50" style="text;strokeColor=none;fillColor=none;align=left;verticalAlign=top;spacingLeft=4;spacingRight=4;overflow=hidden;rotatable=0;points=[[0,0.5],[1,0.5]];portConstraint=eastwest;" parent="EMEBmPivCi-tZ2R8giL_-6" vertex="1">
          <mxGeometry y="26" width="460" height="54" as="geometry" />
        </mxCell>
        <mxCell id="EMEBmPivCi-tZ2R8giL_-8" value="" style="line;strokeWidth=1;fillColor=none;align=left;verticalAlign=middle;spacingTop=-1;spacingLeft=3;spacingRight=3;rotatable=0;labelPosition=right;points=[];portConstraint=eastwest;" parent="EMEBmPivCi-tZ2R8giL_-6" vertex="1">
          <mxGeometry y="80" width="460" height="8" as="geometry" />
        </mxCell>
        <mxCell id="EMEBmPivCi-tZ2R8giL_-9" value="+ ActivityRide(EnvironmentControllerImpl, EnvironmentImpl, PeopleMovingIntoPark)&#xa;+ ride() : void" style="text;strokeColor=none;fillColor=none;align=left;verticalAlign=top;spacingLeft=4;spacingRight=4;overflow=hidden;rotatable=0;points=[[0,0.5],[1,0.5]];portConstraint=eastwest;" parent="EMEBmPivCi-tZ2R8giL_-6" vertex="1">
          <mxGeometry y="88" width="460" height="38" as="geometry" />
        </mxCell>
        <mxCell id="EMEBmPivCi-tZ2R8giL_-13" value="PeopleRecirculation" style="swimlane;fontStyle=1;align=center;verticalAlign=top;childLayout=stackLayout;horizontal=1;startSize=26;horizontalStack=0;resizeParent=1;resizeParentMax=0;resizeLast=0;collapsible=1;marginBottom=0;" parent="EMEBmPivCi-tZ2R8giL_-1" vertex="1">
          <mxGeometry x="99" y="230" width="630" height="86" as="geometry" />
        </mxCell>
        <mxCell id="EMEBmPivCi-tZ2R8giL_-15" value="" style="line;strokeWidth=1;fillColor=none;align=left;verticalAlign=middle;spacingTop=-1;spacingLeft=3;spacingRight=3;rotatable=0;labelPosition=right;points=[];portConstraint=eastwest;" parent="EMEBmPivCi-tZ2R8giL_-13" vertex="1">
          <mxGeometry y="26" width="630" height="8" as="geometry" />
        </mxCell>
        <mxCell id="EMEBmPivCi-tZ2R8giL_-16" value="+ PeopleRecirculation(EnvironmentImpl, EnvironmentControllerImpl, PersonIntoPark, PeopleRecirculationGui)&#xa;+ recirculation() : void" style="text;strokeColor=none;fillColor=none;align=left;verticalAlign=top;spacingLeft=4;spacingRight=4;overflow=hidden;rotatable=0;points=[[0,0.5],[1,0.5]];portConstraint=eastwest;" parent="EMEBmPivCi-tZ2R8giL_-13" vertex="1">
          <mxGeometry y="34" width="630" height="52" as="geometry" />
        </mxCell>
        <mxCell id="3fQUDHdxnC0WN2TLvLl2-4" value="" style="endArrow=none;html=1;rounded=0;entryX=0.48;entryY=1.003;entryDx=0;entryDy=0;entryPerimeter=0;exitX=0.5;exitY=0;exitDx=0;exitDy=0;" parent="EMEBmPivCi-tZ2R8giL_-1" source="EMEBmPivCi-tZ2R8giL_-2" target="EMEBmPivCi-tZ2R8giL_-16" edge="1">
          <mxGeometry width="50" height="50" relative="1" as="geometry">
            <mxPoint x="410" y="450" as="sourcePoint" />
            <mxPoint x="460" y="400" as="targetPoint" />
          </mxGeometry>
        </mxCell>
        <mxCell id="3fQUDHdxnC0WN2TLvLl2-5" value="" style="endArrow=none;html=1;rounded=0;entryX=0.527;entryY=0.003;entryDx=0;entryDy=0;entryPerimeter=0;" parent="EMEBmPivCi-tZ2R8giL_-1" target="EMEBmPivCi-tZ2R8giL_-6" edge="1">
          <mxGeometry width="50" height="50" relative="1" as="geometry">
            <mxPoint x="402" y="590" as="sourcePoint" />
            <mxPoint x="460" y="400" as="targetPoint" />
          </mxGeometry>
        </mxCell>
      </root>
    </mxGraphModel>
  </diagram>
  <diagram id="wfyoJl_f01yMOaJlOFpH" name="Page-4">
    <mxGraphModel dx="782" dy="436" grid="1" gridSize="10" guides="1" tooltips="1" connect="1" arrows="1" fold="1" page="1" pageScale="1" pageWidth="827" pageHeight="1169" math="0" shadow="0">
      <root>
        <mxCell id="fwnIbcaLSa3AvIhgVxqB-0" />
        <mxCell id="fwnIbcaLSa3AvIhgVxqB-1" parent="fwnIbcaLSa3AvIhgVxqB-0" />
        <mxCell id="dX-YaHydr7qEi9mys0Pn-0" value="&lt;font style=&quot;font-size: 16px&quot;&gt;Activity building&lt;/font&gt;" style="text;html=1;strokeColor=none;fillColor=none;align=center;verticalAlign=middle;whiteSpace=wrap;rounded=0;" parent="fwnIbcaLSa3AvIhgVxqB-1" vertex="1">
          <mxGeometry x="339" y="80" width="150" height="30" as="geometry" />
        </mxCell>
        <mxCell id="dX-YaHydr7qEi9mys0Pn-1" value="ViewActivityBuilder" style="swimlane;fontStyle=1;align=center;verticalAlign=top;childLayout=stackLayout;horizontal=1;startSize=26;horizontalStack=0;resizeParent=1;resizeParentMax=0;resizeLast=0;collapsible=1;marginBottom=0;fontSize=12;" parent="fwnIbcaLSa3AvIhgVxqB-1" vertex="1">
          <mxGeometry x="489" y="420" width="237.5" height="180" as="geometry" />
        </mxCell>
        <mxCell id="dX-YaHydr7qEi9mys0Pn-2" value="- capacity: Optional&lt;Integer&gt;&#xa;- minPrice: Optional&lt;Integer&gt;&#xa;- maxPrice:: Optional&lt;Integer&gt;" style="text;strokeColor=none;fillColor=none;align=left;verticalAlign=top;spacingLeft=4;spacingRight=4;overflow=hidden;rotatable=0;points=[[0,0.5],[1,0.5]];portConstraint=eastwest;fontSize=12;" parent="dX-YaHydr7qEi9mys0Pn-1" vertex="1">
          <mxGeometry y="26" width="237.5" height="64" as="geometry" />
        </mxCell>
        <mxCell id="dX-YaHydr7qEi9mys0Pn-3" value="" style="line;strokeWidth=1;fillColor=none;align=left;verticalAlign=middle;spacingTop=-1;spacingLeft=3;spacingRight=3;rotatable=0;labelPosition=right;points=[];portConstraint=eastwest;fontSize=12;" parent="dX-YaHydr7qEi9mys0Pn-1" vertex="1">
          <mxGeometry y="90" width="237.5" height="8" as="geometry" />
        </mxCell>
        <mxCell id="dX-YaHydr7qEi9mys0Pn-4" value="+ ViewActivityBuilder(String, ActivityType)&#xa;+ capacity(int): ViewActivityBuilder&#xa;+ minPrice(int): ViewActivityBuilder&#xa;+ maxPrice(int): ViewActivityBuilder&#xa;+ build( ): ViewActivityBuilder" style="text;strokeColor=none;fillColor=none;align=left;verticalAlign=top;spacingLeft=4;spacingRight=4;overflow=hidden;rotatable=0;points=[[0,0.5],[1,0.5]];portConstraint=eastwest;fontSize=12;" parent="dX-YaHydr7qEi9mys0Pn-1" vertex="1">
          <mxGeometry y="98" width="237.5" height="82" as="geometry" />
        </mxCell>
        <mxCell id="dX-YaHydr7qEi9mys0Pn-24" value="ViewActivityImpl" style="swimlane;fontStyle=1;align=center;verticalAlign=top;childLayout=stackLayout;horizontal=1;startSize=26;horizontalStack=0;resizeParent=1;resizeParentMax=0;resizeLast=0;collapsible=1;marginBottom=0;fontSize=12;" parent="fwnIbcaLSa3AvIhgVxqB-1" vertex="1">
          <mxGeometry x="135" y="585" width="160" height="34" as="geometry" />
        </mxCell>
        <mxCell id="dX-YaHydr7qEi9mys0Pn-35" value="" style="endArrow=block;dashed=1;endFill=0;endSize=12;html=1;rounded=0;fontSize=12;" parent="dX-YaHydr7qEi9mys0Pn-24" edge="1">
          <mxGeometry width="160" relative="1" as="geometry">
            <mxPoint x="80" y="-5" as="sourcePoint" />
            <mxPoint x="80" y="-175" as="targetPoint" />
          </mxGeometry>
        </mxCell>
        <mxCell id="dX-YaHydr7qEi9mys0Pn-28" value="&lt;&lt;Enum&gt;&gt;&#xa;ActivityType" style="swimlane;fontStyle=1;childLayout=stackLayout;horizontal=1;startSize=40;fillColor=none;horizontalStack=0;resizeParent=1;resizeParentMax=0;resizeLast=0;collapsible=1;marginBottom=0;fontSize=12;" parent="fwnIbcaLSa3AvIhgVxqB-1" vertex="1">
          <mxGeometry x="339" y="720" width="110" height="110" as="geometry" />
        </mxCell>
        <mxCell id="dX-YaHydr7qEi9mys0Pn-29" value="FAIR&#xa;BABYFAIR&#xa;REST&#xa;SHOP" style="text;strokeColor=none;fillColor=none;align=left;verticalAlign=top;spacingLeft=4;spacingRight=4;overflow=hidden;rotatable=0;points=[[0,0.5],[1,0.5]];portConstraint=eastwest;fontSize=12;" parent="dX-YaHydr7qEi9mys0Pn-28" vertex="1">
          <mxGeometry y="40" width="110" height="70" as="geometry" />
        </mxCell>
        <mxCell id="dX-YaHydr7qEi9mys0Pn-32" value="Use" style="endArrow=open;endSize=12;dashed=1;html=1;rounded=0;fontSize=12;entryX=-0.021;entryY=0.192;entryDx=0;entryDy=0;entryPerimeter=0;" parent="fwnIbcaLSa3AvIhgVxqB-1" target="dX-YaHydr7qEi9mys0Pn-28" edge="1">
          <mxGeometry width="160" relative="1" as="geometry">
            <mxPoint x="210" y="628" as="sourcePoint" />
            <mxPoint x="370" y="628" as="targetPoint" />
          </mxGeometry>
        </mxCell>
        <mxCell id="dX-YaHydr7qEi9mys0Pn-26" value="" style="line;strokeWidth=1;fillColor=none;align=left;verticalAlign=middle;spacingTop=-1;spacingLeft=3;spacingRight=3;rotatable=0;labelPosition=right;points=[];portConstraint=eastwest;fontSize=12;" parent="fwnIbcaLSa3AvIhgVxqB-1" vertex="1">
          <mxGeometry x="135" y="620" width="160" height="8" as="geometry" />
        </mxCell>
        <mxCell id="dX-YaHydr7qEi9mys0Pn-34" value="Use" style="endArrow=open;endSize=12;dashed=1;html=1;rounded=0;fontSize=12;entryX=1;entryY=0.25;entryDx=0;entryDy=0;exitX=0.446;exitY=1.054;exitDx=0;exitDy=0;exitPerimeter=0;" parent="fwnIbcaLSa3AvIhgVxqB-1" source="dX-YaHydr7qEi9mys0Pn-4" target="dX-YaHydr7qEi9mys0Pn-28" edge="1">
          <mxGeometry width="160" relative="1" as="geometry">
            <mxPoint x="580" y="630" as="sourcePoint" />
            <mxPoint x="560" y="580" as="targetPoint" />
          </mxGeometry>
        </mxCell>
        <mxCell id="dX-YaHydr7qEi9mys0Pn-37" value="" style="endArrow=open;endFill=1;endSize=12;html=1;rounded=0;fontSize=12;exitX=0.425;exitY=1;exitDx=0;exitDy=0;exitPerimeter=0;" parent="fwnIbcaLSa3AvIhgVxqB-1" edge="1">
          <mxGeometry width="160" relative="1" as="geometry">
            <mxPoint x="597.8362500000001" y="318" as="sourcePoint" />
            <mxPoint x="598" y="420" as="targetPoint" />
          </mxGeometry>
        </mxCell>
        <mxCell id="dX-YaHydr7qEi9mys0Pn-41" value="" style="endArrow=open;endFill=1;endSize=12;html=1;rounded=0;fontSize=12;entryX=1;entryY=0.5;entryDx=0;entryDy=0;exitX=-0.011;exitY=0.321;exitDx=0;exitDy=0;exitPerimeter=0;" parent="fwnIbcaLSa3AvIhgVxqB-1" source="dX-YaHydr7qEi9mys0Pn-4" target="dX-YaHydr7qEi9mys0Pn-24" edge="1">
          <mxGeometry width="160" relative="1" as="geometry">
            <mxPoint x="380" y="590" as="sourcePoint" />
            <mxPoint x="540" y="590" as="targetPoint" />
            <Array as="points">
              <mxPoint x="390" y="544" />
              <mxPoint x="390" y="602" />
            </Array>
          </mxGeometry>
        </mxCell>
        <mxCell id="dX-YaHydr7qEi9mys0Pn-42" value="builds" style="edgeLabel;html=1;align=center;verticalAlign=middle;resizable=0;points=[];fontSize=12;" parent="dX-YaHydr7qEi9mys0Pn-41" vertex="1" connectable="0">
          <mxGeometry x="-0.2545" y="2" relative="1" as="geometry">
            <mxPoint x="8" y="-34" as="offset" />
          </mxGeometry>
        </mxCell>
        <mxCell id="hRqZrWjBHcLSN3kbk7zW-0" value="&lt;p style=&quot;margin: 0px ; margin-top: 4px ; text-align: center&quot;&gt;&lt;i&gt;&amp;lt;&amp;lt;Interface&amp;gt;&amp;gt;&lt;/i&gt;&lt;br&gt;&lt;b&gt;ViewActivity&lt;/b&gt;&lt;/p&gt;&lt;hr size=&quot;1&quot;&gt;&lt;p style=&quot;margin: 0px 0px 0px 4px&quot;&gt;&lt;font style=&quot;font-size: 12px&quot;&gt;+ getName( ): String&lt;br style=&quot;padding: 0px ; margin: 0px&quot;&gt;+ getActivityType( ): ActivityType&lt;br style=&quot;padding: 0px ; margin: 0px&quot;&gt;+ getCapacity( ): Optional&amp;lt;Integer&amp;gt;&lt;br style=&quot;padding: 0px ; margin: 0px&quot;&gt;+ getMinPrice( ): Optional&amp;lt;Integer&amp;gt;&lt;br style=&quot;padding: 0px ; margin: 0px&quot;&gt;+ getMaxPrice( ): Optional&amp;lt;Integer&amp;gt;&lt;br&gt;&lt;/font&gt;&lt;/p&gt;&lt;p style=&quot;margin: 0px 0px 0px 4px&quot;&gt;&lt;br&gt;&lt;/p&gt;" style="verticalAlign=top;align=left;overflow=fill;fontSize=12;fontFamily=Helvetica;html=1;" parent="fwnIbcaLSa3AvIhgVxqB-1" vertex="1">
          <mxGeometry x="115" y="290" width="200" height="120" as="geometry" />
        </mxCell>
        <mxCell id="q9vemXlrjxWSHEHswNT9-0" value="&lt;p style=&quot;margin: 0px ; margin-top: 4px ; text-align: center&quot;&gt;&lt;i&gt;&amp;lt;&amp;lt;Interface&amp;gt;&amp;gt;&lt;/i&gt;&lt;br&gt;&lt;b&gt;ActivityGui&lt;/b&gt;&lt;/p&gt;&lt;hr size=&quot;1&quot;&gt;&lt;p style=&quot;margin: 0px ; margin-left: 4px&quot;&gt;+ display( ): void&lt;/p&gt;&lt;p style=&quot;margin: 0px ; margin-left: 4px&quot;&gt;+ reset ( ): void&lt;/p&gt;&lt;p style=&quot;margin: 0px ; margin-left: 4px&quot;&gt;&lt;br&gt;&lt;/p&gt;" style="verticalAlign=top;align=left;overflow=fill;fontSize=12;fontFamily=Helvetica;html=1;" parent="fwnIbcaLSa3AvIhgVxqB-1" vertex="1">
          <mxGeometry x="540" y="240" width="110" height="80" as="geometry" />
        </mxCell>
      </root>
    </mxGraphModel>
  </diagram>
  <diagram id="LJQ7svafoWysEK2qlxeR" name="Page-5">
    <mxGraphModel dx="782" dy="436" grid="1" gridSize="10" guides="1" tooltips="1" connect="1" arrows="1" fold="1" page="1" pageScale="1" pageWidth="827" pageHeight="1169" math="0" shadow="0">
      <root>
        <mxCell id="Kes3zp-cRvQgR5Dzs4Uk-0" />
        <mxCell id="Kes3zp-cRvQgR5Dzs4Uk-1" parent="Kes3zp-cRvQgR5Dzs4Uk-0" />
        <mxCell id="Kes3zp-cRvQgR5Dzs4Uk-2" value="Activity insertion" style="text;html=1;align=center;verticalAlign=middle;resizable=0;points=[];autosize=1;strokeColor=none;fillColor=none;fontSize=12;" parent="Kes3zp-cRvQgR5Dzs4Uk-1" vertex="1">
          <mxGeometry x="364" y="60" width="100" height="20" as="geometry" />
        </mxCell>
        <mxCell id="Kes3zp-cRvQgR5Dzs4Uk-3" value="&lt;&lt;Interface&gt;&gt;&#xa;EnvironmentController" style="swimlane;fontStyle=1;align=center;verticalAlign=top;childLayout=stackLayout;horizontal=1;startSize=50;horizontalStack=0;resizeParent=1;resizeParentMax=0;resizeLast=0;collapsible=1;marginBottom=0;fontSize=12;" parent="Kes3zp-cRvQgR5Dzs4Uk-1" vertex="1">
          <mxGeometry x="288.75" y="570" width="227.5" height="84" as="geometry" />
        </mxCell>
        <mxCell id="Kes3zp-cRvQgR5Dzs4Uk-5" value="" style="line;strokeWidth=1;fillColor=none;align=left;verticalAlign=middle;spacingTop=-1;spacingLeft=3;spacingRight=3;rotatable=0;labelPosition=right;points=[];portConstraint=eastwest;fontSize=12;" parent="Kes3zp-cRvQgR5Dzs4Uk-3" vertex="1">
          <mxGeometry y="50" width="227.5" height="8" as="geometry" />
        </mxCell>
        <mxCell id="Kes3zp-cRvQgR5Dzs4Uk-6" value="+ addNewActivity(ViewActivityImpl): void&#xa;" style="text;strokeColor=none;fillColor=none;align=left;verticalAlign=top;spacingLeft=4;spacingRight=4;overflow=hidden;rotatable=0;points=[[0,0.5],[1,0.5]];portConstraint=eastwest;fontSize=12;" parent="Kes3zp-cRvQgR5Dzs4Uk-3" vertex="1">
          <mxGeometry y="58" width="227.5" height="26" as="geometry" />
        </mxCell>
        <mxCell id="Kes3zp-cRvQgR5Dzs4Uk-7" value="EnvironmentControllerImpl" style="swimlane;fontStyle=1;align=center;verticalAlign=top;childLayout=stackLayout;horizontal=1;startSize=26;horizontalStack=0;resizeParent=1;resizeParentMax=0;resizeLast=0;collapsible=1;marginBottom=0;fontSize=12;" parent="Kes3zp-cRvQgR5Dzs4Uk-1" vertex="1">
          <mxGeometry x="288.75" y="800" width="230" height="84" as="geometry" />
        </mxCell>
        <mxCell id="Kes3zp-cRvQgR5Dzs4Uk-9" value="" style="line;strokeWidth=1;fillColor=none;align=left;verticalAlign=middle;spacingTop=-1;spacingLeft=3;spacingRight=3;rotatable=0;labelPosition=right;points=[];portConstraint=eastwest;fontSize=12;" parent="Kes3zp-cRvQgR5Dzs4Uk-7" vertex="1">
          <mxGeometry y="26" width="230" height="8" as="geometry" />
        </mxCell>
        <mxCell id="Kes3zp-cRvQgR5Dzs4Uk-10" value="+ addNewActivity(ViewActivityImpl): void&#xa;+ getActivityList( ): List&lt;ViewActivityImpl&gt;" style="text;strokeColor=none;fillColor=none;align=left;verticalAlign=top;spacingLeft=4;spacingRight=4;overflow=hidden;rotatable=0;points=[[0,0.5],[1,0.5]];portConstraint=eastwest;fontSize=12;" parent="Kes3zp-cRvQgR5Dzs4Uk-7" vertex="1">
          <mxGeometry y="34" width="230" height="50" as="geometry" />
        </mxCell>
        <mxCell id="Kes3zp-cRvQgR5Dzs4Uk-11" value="" style="endArrow=block;dashed=1;endFill=0;endSize=12;html=1;rounded=0;fontSize=12;exitX=0.5;exitY=0;exitDx=0;exitDy=0;entryX=0.511;entryY=1.077;entryDx=0;entryDy=0;entryPerimeter=0;" parent="Kes3zp-cRvQgR5Dzs4Uk-1" source="Kes3zp-cRvQgR5Dzs4Uk-7" target="Kes3zp-cRvQgR5Dzs4Uk-6" edge="1">
          <mxGeometry width="160" relative="1" as="geometry">
            <mxPoint x="411.5" y="790" as="sourcePoint" />
            <mxPoint x="404" y="660" as="targetPoint" />
          </mxGeometry>
        </mxCell>
        <mxCell id="Kes3zp-cRvQgR5Dzs4Uk-12" value="&lt;&lt;interface&gt;&gt;&#xa;ActivityEnvironment" style="swimlane;fontStyle=1;align=center;verticalAlign=top;childLayout=stackLayout;horizontal=1;startSize=50;horizontalStack=0;resizeParent=1;resizeParentMax=0;resizeLast=0;collapsible=1;marginBottom=0;fontSize=12;" parent="Kes3zp-cRvQgR5Dzs4Uk-1" vertex="1">
          <mxGeometry x="530" y="330" width="231" height="84" as="geometry" />
        </mxCell>
        <mxCell id="Kes3zp-cRvQgR5Dzs4Uk-14" value="" style="line;strokeWidth=1;fillColor=none;align=left;verticalAlign=middle;spacingTop=-1;spacingLeft=3;spacingRight=3;rotatable=0;labelPosition=right;points=[];portConstraint=eastwest;fontSize=12;" parent="Kes3zp-cRvQgR5Dzs4Uk-12" vertex="1">
          <mxGeometry y="50" width="231" height="8" as="geometry" />
        </mxCell>
        <mxCell id="Kes3zp-cRvQgR5Dzs4Uk-15" value="+ activityInsertion(ViewActivityImpl): void" style="text;strokeColor=none;fillColor=none;align=left;verticalAlign=top;spacingLeft=4;spacingRight=4;overflow=hidden;rotatable=0;points=[[0,0.5],[1,0.5]];portConstraint=eastwest;fontSize=12;" parent="Kes3zp-cRvQgR5Dzs4Uk-12" vertex="1">
          <mxGeometry y="58" width="231" height="26" as="geometry" />
        </mxCell>
        <mxCell id="Kes3zp-cRvQgR5Dzs4Uk-17" value="ActivityEnvironmentImpl" style="swimlane;fontStyle=1;align=center;verticalAlign=top;childLayout=stackLayout;horizontal=1;startSize=26;horizontalStack=0;resizeParent=1;resizeParentMax=0;resizeLast=0;collapsible=1;marginBottom=0;fontSize=12;" parent="Kes3zp-cRvQgR5Dzs4Uk-1" vertex="1">
          <mxGeometry x="530" y="130" width="231" height="80" as="geometry" />
        </mxCell>
        <mxCell id="Kes3zp-cRvQgR5Dzs4Uk-19" value="" style="line;strokeWidth=1;fillColor=none;align=left;verticalAlign=middle;spacingTop=-1;spacingLeft=3;spacingRight=3;rotatable=0;labelPosition=right;points=[];portConstraint=eastwest;fontSize=12;" parent="Kes3zp-cRvQgR5Dzs4Uk-17" vertex="1">
          <mxGeometry y="26" width="231" height="8" as="geometry" />
        </mxCell>
        <mxCell id="Kes3zp-cRvQgR5Dzs4Uk-20" value="+ activityInsertion(ViewActivityImpl): void&#xa;+ resetActivity( ): void" style="text;strokeColor=none;fillColor=none;align=left;verticalAlign=top;spacingLeft=4;spacingRight=4;overflow=hidden;rotatable=0;points=[[0,0.5],[1,0.5]];portConstraint=eastwest;fontSize=12;" parent="Kes3zp-cRvQgR5Dzs4Uk-17" vertex="1">
          <mxGeometry y="34" width="231" height="46" as="geometry" />
        </mxCell>
        <mxCell id="Kes3zp-cRvQgR5Dzs4Uk-25" value="«interface»&lt;br style=&quot;font-size: 12px;&quot;&gt;&lt;b style=&quot;font-size: 12px;&quot;&gt;ActivityGui&lt;/b&gt;" style="html=1;fontSize=12;" parent="Kes3zp-cRvQgR5Dzs4Uk-1" vertex="1">
          <mxGeometry x="150" y="354" width="110" height="60" as="geometry" />
        </mxCell>
        <mxCell id="h1_gbP7DzbueTrsNbGWB-0" value="ProfitGui" style="swimlane;fontStyle=1;align=center;verticalAlign=top;childLayout=stackLayout;horizontal=1;startSize=26;horizontalStack=0;resizeParent=1;resizeParentMax=0;resizeLast=0;collapsible=1;marginBottom=0;fontSize=12;" parent="Kes3zp-cRvQgR5Dzs4Uk-1" vertex="1">
          <mxGeometry x="60" y="130" width="110" height="80" as="geometry" />
        </mxCell>
        <mxCell id="h1_gbP7DzbueTrsNbGWB-2" value="" style="line;strokeWidth=1;fillColor=none;align=left;verticalAlign=middle;spacingTop=-1;spacingLeft=3;spacingRight=3;rotatable=0;labelPosition=right;points=[];portConstraint=eastwest;fontSize=12;" parent="h1_gbP7DzbueTrsNbGWB-0" vertex="1">
          <mxGeometry y="26" width="110" height="8" as="geometry" />
        </mxCell>
        <mxCell id="h1_gbP7DzbueTrsNbGWB-3" value="+ display( ): void&#xa;+ reset( ): void" style="text;strokeColor=none;fillColor=none;align=left;verticalAlign=top;spacingLeft=4;spacingRight=4;overflow=hidden;rotatable=0;points=[[0,0.5],[1,0.5]];portConstraint=eastwest;fontSize=12;" parent="h1_gbP7DzbueTrsNbGWB-0" vertex="1">
          <mxGeometry y="34" width="110" height="46" as="geometry" />
        </mxCell>
        <mxCell id="h1_gbP7DzbueTrsNbGWB-4" value="FairGui" style="swimlane;fontStyle=1;align=center;verticalAlign=top;childLayout=stackLayout;horizontal=1;startSize=26;horizontalStack=0;resizeParent=1;resizeParentMax=0;resizeLast=0;collapsible=1;marginBottom=0;fontSize=12;" parent="Kes3zp-cRvQgR5Dzs4Uk-1" vertex="1">
          <mxGeometry x="240" y="130" width="110" height="80" as="geometry" />
        </mxCell>
        <mxCell id="h1_gbP7DzbueTrsNbGWB-6" value="" style="line;strokeWidth=1;fillColor=none;align=left;verticalAlign=middle;spacingTop=-1;spacingLeft=3;spacingRight=3;rotatable=0;labelPosition=right;points=[];portConstraint=eastwest;fontSize=12;" parent="h1_gbP7DzbueTrsNbGWB-4" vertex="1">
          <mxGeometry y="26" width="110" height="8" as="geometry" />
        </mxCell>
        <mxCell id="h1_gbP7DzbueTrsNbGWB-7" value="+ display( ): void&#xa;+ reset( ): void" style="text;strokeColor=none;fillColor=none;align=left;verticalAlign=top;spacingLeft=4;spacingRight=4;overflow=hidden;rotatable=0;points=[[0,0.5],[1,0.5]];portConstraint=eastwest;fontSize=12;" parent="h1_gbP7DzbueTrsNbGWB-4" vertex="1">
          <mxGeometry y="34" width="110" height="46" as="geometry" />
        </mxCell>
        <mxCell id="h1_gbP7DzbueTrsNbGWB-8" value="" style="endArrow=block;dashed=1;endFill=0;endSize=12;html=1;rounded=0;fontSize=12;exitX=0.4;exitY=1.087;exitDx=0;exitDy=0;exitPerimeter=0;entryX=0.627;entryY=-0.017;entryDx=0;entryDy=0;entryPerimeter=0;" parent="Kes3zp-cRvQgR5Dzs4Uk-1" source="h1_gbP7DzbueTrsNbGWB-7" target="Kes3zp-cRvQgR5Dzs4Uk-25" edge="1">
          <mxGeometry width="160" relative="1" as="geometry">
            <mxPoint x="360" y="430" as="sourcePoint" />
            <mxPoint x="520" y="430" as="targetPoint" />
          </mxGeometry>
        </mxCell>
        <mxCell id="h1_gbP7DzbueTrsNbGWB-9" value="" style="endArrow=block;dashed=1;endFill=0;endSize=12;html=1;rounded=0;fontSize=12;exitX=0.682;exitY=1.065;exitDx=0;exitDy=0;exitPerimeter=0;entryX=0.327;entryY=-0.017;entryDx=0;entryDy=0;entryPerimeter=0;" parent="Kes3zp-cRvQgR5Dzs4Uk-1" source="h1_gbP7DzbueTrsNbGWB-3" target="Kes3zp-cRvQgR5Dzs4Uk-25" edge="1">
          <mxGeometry width="160" relative="1" as="geometry">
            <mxPoint x="360" y="430" as="sourcePoint" />
            <mxPoint x="180" y="330" as="targetPoint" />
          </mxGeometry>
        </mxCell>
        <mxCell id="h1_gbP7DzbueTrsNbGWB-10" value="" style="endArrow=block;dashed=1;endFill=0;endSize=12;html=1;rounded=0;fontSize=12;exitX=0.503;exitY=1.043;exitDx=0;exitDy=0;exitPerimeter=0;" parent="Kes3zp-cRvQgR5Dzs4Uk-1" source="Kes3zp-cRvQgR5Dzs4Uk-20" target="Kes3zp-cRvQgR5Dzs4Uk-12" edge="1">
          <mxGeometry width="160" relative="1" as="geometry">
            <mxPoint x="640" y="220" as="sourcePoint" />
            <mxPoint x="520" y="430" as="targetPoint" />
          </mxGeometry>
        </mxCell>
        <mxCell id="h1_gbP7DzbueTrsNbGWB-11" value="" style="endArrow=open;endFill=1;endSize=12;html=1;rounded=0;fontSize=12;exitX=0.598;exitY=-0.012;exitDx=0;exitDy=0;exitPerimeter=0;entryX=0.32;entryY=1.154;entryDx=0;entryDy=0;entryPerimeter=0;" parent="Kes3zp-cRvQgR5Dzs4Uk-1" source="Kes3zp-cRvQgR5Dzs4Uk-3" target="Kes3zp-cRvQgR5Dzs4Uk-15" edge="1">
          <mxGeometry width="160" relative="1" as="geometry">
            <mxPoint x="360" y="430" as="sourcePoint" />
            <mxPoint x="520" y="430" as="targetPoint" />
          </mxGeometry>
        </mxCell>
        <mxCell id="h1_gbP7DzbueTrsNbGWB-12" value="" style="endArrow=open;endFill=1;endSize=12;html=1;rounded=0;fontSize=12;exitX=0.352;exitY=-0.036;exitDx=0;exitDy=0;exitPerimeter=0;entryX=0.445;entryY=1.05;entryDx=0;entryDy=0;entryPerimeter=0;" parent="Kes3zp-cRvQgR5Dzs4Uk-1" source="Kes3zp-cRvQgR5Dzs4Uk-3" target="Kes3zp-cRvQgR5Dzs4Uk-25" edge="1">
          <mxGeometry width="160" relative="1" as="geometry">
            <mxPoint x="360" y="430" as="sourcePoint" />
            <mxPoint x="520" y="430" as="targetPoint" />
          </mxGeometry>
        </mxCell>
      </root>
    </mxGraphModel>
  </diagram>
  <diagram id="eXwee696dCS-7AfkM0U9" name="Page-6">
    <mxGraphModel dx="782" dy="436" grid="1" gridSize="10" guides="1" tooltips="1" connect="1" arrows="1" fold="1" page="1" pageScale="1" pageWidth="827" pageHeight="1169" math="0" shadow="0">
      <root>
        <mxCell id="j8UfkbDBr7yq3QSpxxsV-0" />
        <mxCell id="j8UfkbDBr7yq3QSpxxsV-1" parent="j8UfkbDBr7yq3QSpxxsV-0" />
        <mxCell id="YyE-Fd6N_NH_pzbpOSK1-0" value="Analysis factory" style="text;html=1;align=center;verticalAlign=middle;resizable=0;points=[];autosize=1;strokeColor=none;fillColor=none;fontSize=16;" parent="j8UfkbDBr7yq3QSpxxsV-1" vertex="1">
          <mxGeometry x="349" y="60" width="130" height="20" as="geometry" />
        </mxCell>
        <mxCell id="Yos2ljRKsQITOUnYtiZ9-0" value="AnalysisControllerImpl" style="swimlane;fontStyle=1;align=center;verticalAlign=top;childLayout=stackLayout;horizontal=1;startSize=26;horizontalStack=0;resizeParent=1;resizeParentMax=0;resizeLast=0;collapsible=1;marginBottom=0;" parent="j8UfkbDBr7yq3QSpxxsV-1" vertex="1">
          <mxGeometry x="600" y="690" width="210" height="100" as="geometry" />
        </mxCell>
        <mxCell id="Yos2ljRKsQITOUnYtiZ9-2" value="" style="line;strokeWidth=1;fillColor=none;align=left;verticalAlign=middle;spacingTop=-1;spacingLeft=3;spacingRight=3;rotatable=0;labelPosition=right;points=[];portConstraint=eastwest;" parent="Yos2ljRKsQITOUnYtiZ9-0" vertex="1">
          <mxGeometry y="26" width="210" height="8" as="geometry" />
        </mxCell>
        <mxCell id="Yos2ljRKsQITOUnYtiZ9-3" value="+ getProfitChart( ): JFreeChart&#xa;+ getFairChart( ): JFreeChart&#xa;+ getPhonyFairChart: JFreeChart&#xa;+ getPhonyProfitChart( ): JFreeChart" style="text;strokeColor=none;fillColor=none;align=left;verticalAlign=top;spacingLeft=4;spacingRight=4;overflow=hidden;rotatable=0;points=[[0,0.5],[1,0.5]];portConstraint=eastwest;" parent="Yos2ljRKsQITOUnYtiZ9-0" vertex="1">
          <mxGeometry y="34" width="210" height="66" as="geometry" />
        </mxCell>
        <mxCell id="xCpOcWqmtnguWbCzmBU7-0" value="&lt;p style=&quot;margin: 0px ; margin-top: 4px ; text-align: center&quot;&gt;&lt;i&gt;&amp;lt;&amp;lt;Interface&amp;gt;&amp;gt;&lt;/i&gt;&lt;br&gt;&lt;b&gt;AnalysisController&lt;/b&gt;&lt;/p&gt;&lt;hr size=&quot;1&quot;&gt;&lt;p style=&quot;margin: 0px ; margin-left: 4px&quot;&gt;+ getProfitChart( ): JFreeChart&lt;/p&gt;&lt;p style=&quot;margin: 0px ; margin-left: 4px&quot;&gt;+ getFairChart( ): JFreeChart&lt;/p&gt;&lt;p style=&quot;margin: 0px ; margin-left: 4px&quot;&gt;&lt;br&gt;&lt;/p&gt;" style="verticalAlign=top;align=left;overflow=fill;fontSize=12;fontFamily=Helvetica;html=1;" parent="j8UfkbDBr7yq3QSpxxsV-1" vertex="1">
          <mxGeometry x="290" y="700" width="220" height="80" as="geometry" />
        </mxCell>
        <mxCell id="xCpOcWqmtnguWbCzmBU7-1" value="AbstractDatasetFactory" style="swimlane;fontStyle=3;align=center;verticalAlign=top;childLayout=stackLayout;horizontal=1;startSize=26;horizontalStack=0;resizeParent=1;resizeParentMax=0;resizeLast=0;collapsible=1;marginBottom=0;" parent="j8UfkbDBr7yq3QSpxxsV-1" vertex="1">
          <mxGeometry x="95" y="460" width="170" height="70" as="geometry" />
        </mxCell>
        <mxCell id="xCpOcWqmtnguWbCzmBU7-3" value="" style="line;strokeWidth=1;fillColor=none;align=left;verticalAlign=middle;spacingTop=-1;spacingLeft=3;spacingRight=3;rotatable=0;labelPosition=right;points=[];portConstraint=eastwest;" parent="xCpOcWqmtnguWbCzmBU7-1" vertex="1">
          <mxGeometry y="26" width="170" height="8" as="geometry" />
        </mxCell>
        <mxCell id="xCpOcWqmtnguWbCzmBU7-4" value="+ createDataset( ): Dataset&#xa;+ createChart( ): JFreeChart" style="text;strokeColor=none;fillColor=none;align=left;verticalAlign=top;spacingLeft=4;spacingRight=4;overflow=hidden;rotatable=0;points=[[0,0.5],[1,0.5]];portConstraint=eastwest;fontStyle=2" parent="xCpOcWqmtnguWbCzmBU7-1" vertex="1">
          <mxGeometry y="34" width="170" height="36" as="geometry" />
        </mxCell>
        <mxCell id="xCpOcWqmtnguWbCzmBU7-5" value="FairDatasetFactory" style="swimlane;fontStyle=1;align=center;verticalAlign=top;childLayout=stackLayout;horizontal=1;startSize=26;horizontalStack=0;resizeParent=1;resizeParentMax=0;resizeLast=0;collapsible=1;marginBottom=0;" parent="j8UfkbDBr7yq3QSpxxsV-1" vertex="1">
          <mxGeometry x="45" y="180" width="220" height="130" as="geometry" />
        </mxCell>
        <mxCell id="xCpOcWqmtnguWbCzmBU7-6" value="- controller: EnvironmentControllerImpl" style="text;strokeColor=none;fillColor=none;align=left;verticalAlign=top;spacingLeft=4;spacingRight=4;overflow=hidden;rotatable=0;points=[[0,0.5],[1,0.5]];portConstraint=eastwest;" parent="xCpOcWqmtnguWbCzmBU7-5" vertex="1">
          <mxGeometry y="26" width="220" height="26" as="geometry" />
        </mxCell>
        <mxCell id="xCpOcWqmtnguWbCzmBU7-7" value="" style="line;strokeWidth=1;fillColor=none;align=left;verticalAlign=middle;spacingTop=-1;spacingLeft=3;spacingRight=3;rotatable=0;labelPosition=right;points=[];portConstraint=eastwest;" parent="xCpOcWqmtnguWbCzmBU7-5" vertex="1">
          <mxGeometry y="52" width="220" height="8" as="geometry" />
        </mxCell>
        <mxCell id="xCpOcWqmtnguWbCzmBU7-8" value="+ createDataset( ): PieDataset&#xa;+ createChart( ): JFreeChart&#xa;+ createPhonyDataset( ): PieDataset&#xa;+ createPhonyChart( ): JFreeChart" style="text;strokeColor=none;fillColor=none;align=left;verticalAlign=top;spacingLeft=4;spacingRight=4;overflow=hidden;rotatable=0;points=[[0,0.5],[1,0.5]];portConstraint=eastwest;" parent="xCpOcWqmtnguWbCzmBU7-5" vertex="1">
          <mxGeometry y="60" width="220" height="70" as="geometry" />
        </mxCell>
        <mxCell id="xCpOcWqmtnguWbCzmBU7-9" value="ProfitDatasetFactory" style="swimlane;fontStyle=1;align=center;verticalAlign=top;childLayout=stackLayout;horizontal=1;startSize=26;horizontalStack=0;resizeParent=1;resizeParentMax=0;resizeLast=0;collapsible=1;marginBottom=0;" parent="j8UfkbDBr7yq3QSpxxsV-1" vertex="1">
          <mxGeometry x="310" y="180" width="280" height="130" as="geometry" />
        </mxCell>
        <mxCell id="xCpOcWqmtnguWbCzmBU7-10" value="- controller: EnvironmentControllerImpl" style="text;strokeColor=none;fillColor=none;align=left;verticalAlign=top;spacingLeft=4;spacingRight=4;overflow=hidden;rotatable=0;points=[[0,0.5],[1,0.5]];portConstraint=eastwest;" parent="xCpOcWqmtnguWbCzmBU7-9" vertex="1">
          <mxGeometry y="26" width="280" height="26" as="geometry" />
        </mxCell>
        <mxCell id="xCpOcWqmtnguWbCzmBU7-11" value="" style="line;strokeWidth=1;fillColor=none;align=left;verticalAlign=middle;spacingTop=-1;spacingLeft=3;spacingRight=3;rotatable=0;labelPosition=right;points=[];portConstraint=eastwest;" parent="xCpOcWqmtnguWbCzmBU7-9" vertex="1">
          <mxGeometry y="52" width="280" height="8" as="geometry" />
        </mxCell>
        <mxCell id="xCpOcWqmtnguWbCzmBU7-12" value="+ createDataset( ): DefaultCategoryDataset&#xa;+ createChart( ): JFreeChart&#xa;+ createPhonyDataset( ): DefaultCategoryDataset&#xa;+ createPhonyChart( ): JFreeChart" style="text;strokeColor=none;fillColor=none;align=left;verticalAlign=top;spacingLeft=4;spacingRight=4;overflow=hidden;rotatable=0;points=[[0,0.5],[1,0.5]];portConstraint=eastwest;" parent="xCpOcWqmtnguWbCzmBU7-9" vertex="1">
          <mxGeometry y="60" width="280" height="70" as="geometry" />
        </mxCell>
        <mxCell id="xCpOcWqmtnguWbCzmBU7-13" value="AnalysisDialog" style="swimlane;fontStyle=1;align=center;verticalAlign=top;childLayout=stackLayout;horizontal=1;startSize=26;horizontalStack=0;resizeParent=1;resizeParentMax=0;resizeLast=0;collapsible=1;marginBottom=0;" parent="j8UfkbDBr7yq3QSpxxsV-1" vertex="1">
          <mxGeometry x="524" y="458" width="230" height="74" as="geometry" />
        </mxCell>
        <mxCell id="xCpOcWqmtnguWbCzmBU7-15" value="" style="line;strokeWidth=1;fillColor=none;align=left;verticalAlign=middle;spacingTop=-1;spacingLeft=3;spacingRight=3;rotatable=0;labelPosition=right;points=[];portConstraint=eastwest;" parent="xCpOcWqmtnguWbCzmBU7-13" vertex="1">
          <mxGeometry y="26" width="230" height="8" as="geometry" />
        </mxCell>
        <mxCell id="xCpOcWqmtnguWbCzmBU7-16" value="+ AnalysisDialog(AnalysisControllerImpl,&#xa;    EnvironmentControllerImpl)" style="text;strokeColor=none;fillColor=none;align=left;verticalAlign=top;spacingLeft=4;spacingRight=4;overflow=hidden;rotatable=0;points=[[0,0.5],[1,0.5]];portConstraint=eastwest;" parent="xCpOcWqmtnguWbCzmBU7-13" vertex="1">
          <mxGeometry y="34" width="230" height="40" as="geometry" />
        </mxCell>
        <mxCell id="xCpOcWqmtnguWbCzmBU7-17" value="" style="endArrow=block;dashed=1;endFill=0;endSize=12;html=1;rounded=0;entryX=1;entryY=0.5;entryDx=0;entryDy=0;" parent="j8UfkbDBr7yq3QSpxxsV-1" source="Yos2ljRKsQITOUnYtiZ9-0" target="xCpOcWqmtnguWbCzmBU7-0" edge="1">
          <mxGeometry width="160" relative="1" as="geometry">
            <mxPoint x="410" y="910" as="sourcePoint" />
            <mxPoint x="410" y="780" as="targetPoint" />
          </mxGeometry>
        </mxCell>
        <mxCell id="xCpOcWqmtnguWbCzmBU7-18" value="" style="endArrow=open;endFill=1;endSize=12;html=1;rounded=0;entryX=0.529;entryY=1.056;entryDx=0;entryDy=0;entryPerimeter=0;" parent="j8UfkbDBr7yq3QSpxxsV-1" target="xCpOcWqmtnguWbCzmBU7-4" edge="1">
          <mxGeometry width="160" relative="1" as="geometry">
            <mxPoint x="340" y="700" as="sourcePoint" />
            <mxPoint x="480" y="730" as="targetPoint" />
          </mxGeometry>
        </mxCell>
        <mxCell id="xCpOcWqmtnguWbCzmBU7-28" value="model" style="edgeLabel;html=1;align=center;verticalAlign=middle;resizable=0;points=[];" parent="xCpOcWqmtnguWbCzmBU7-18" vertex="1" connectable="0">
          <mxGeometry x="0.1251" y="-2" relative="1" as="geometry">
            <mxPoint as="offset" />
          </mxGeometry>
        </mxCell>
        <mxCell id="xCpOcWqmtnguWbCzmBU7-19" value="" style="endArrow=open;endFill=1;endSize=12;html=1;rounded=0;entryX=0.357;entryY=1.075;entryDx=0;entryDy=0;entryPerimeter=0;exitX=0.75;exitY=0;exitDx=0;exitDy=0;" parent="j8UfkbDBr7yq3QSpxxsV-1" source="xCpOcWqmtnguWbCzmBU7-0" target="xCpOcWqmtnguWbCzmBU7-16" edge="1">
          <mxGeometry width="160" relative="1" as="geometry">
            <mxPoint x="320" y="730" as="sourcePoint" />
            <mxPoint x="480" y="730" as="targetPoint" />
          </mxGeometry>
        </mxCell>
        <mxCell id="xCpOcWqmtnguWbCzmBU7-29" value="view" style="edgeLabel;html=1;align=center;verticalAlign=middle;resizable=0;points=[];" parent="xCpOcWqmtnguWbCzmBU7-19" vertex="1" connectable="0">
          <mxGeometry x="-0.0738" y="1" relative="1" as="geometry">
            <mxPoint x="15" y="-14" as="offset" />
          </mxGeometry>
        </mxCell>
        <mxCell id="xCpOcWqmtnguWbCzmBU7-20" value="Extends" style="endArrow=block;endSize=16;endFill=0;html=1;rounded=0;entryX=0.559;entryY=-0.029;entryDx=0;entryDy=0;entryPerimeter=0;" parent="j8UfkbDBr7yq3QSpxxsV-1" target="xCpOcWqmtnguWbCzmBU7-1" edge="1">
          <mxGeometry x="0.3447" y="10" width="160" relative="1" as="geometry">
            <mxPoint x="100" y="310" as="sourcePoint" />
            <mxPoint x="184.03999999999996" y="460" as="targetPoint" />
            <Array as="points">
              <mxPoint x="100" y="380" />
              <mxPoint x="190" y="380" />
            </Array>
            <mxPoint x="-10" y="-10" as="offset" />
          </mxGeometry>
        </mxCell>
        <mxCell id="xCpOcWqmtnguWbCzmBU7-21" value="" style="endArrow=none;html=1;rounded=0;" parent="j8UfkbDBr7yq3QSpxxsV-1" source="xCpOcWqmtnguWbCzmBU7-12" edge="1">
          <mxGeometry width="50" height="50" relative="1" as="geometry">
            <mxPoint x="370" y="480" as="sourcePoint" />
            <mxPoint x="180" y="380" as="targetPoint" />
            <Array as="points">
              <mxPoint x="450" y="380" />
            </Array>
          </mxGeometry>
        </mxCell>
        <mxCell id="xCpOcWqmtnguWbCzmBU7-26" value="&lt;p style=&quot;margin: 0px ; margin-top: 4px ; text-align: center&quot;&gt;&lt;i&gt;&amp;lt;&amp;lt;Interface&amp;gt;&amp;gt;&lt;/i&gt;&lt;br&gt;&lt;b&gt;EnvironmentController&lt;/b&gt;&lt;/p&gt;&lt;hr size=&quot;1&quot;&gt;&lt;p style=&quot;margin: 0px ; margin-left: 4px&quot;&gt;+ showAnalysis( ): void&lt;/p&gt;&lt;p style=&quot;margin: 0px ; margin-left: 4px&quot;&gt;&lt;br&gt;&lt;/p&gt;" style="verticalAlign=top;align=left;overflow=fill;fontSize=12;fontFamily=Helvetica;html=1;" parent="j8UfkbDBr7yq3QSpxxsV-1" vertex="1">
          <mxGeometry x="325" y="900" width="150" height="70" as="geometry" />
        </mxCell>
        <mxCell id="xCpOcWqmtnguWbCzmBU7-27" value="" style="endArrow=open;endFill=1;endSize=12;html=1;rounded=0;exitX=0.5;exitY=0;exitDx=0;exitDy=0;entryX=0.5;entryY=1;entryDx=0;entryDy=0;" parent="j8UfkbDBr7yq3QSpxxsV-1" source="xCpOcWqmtnguWbCzmBU7-26" target="xCpOcWqmtnguWbCzmBU7-0" edge="1">
          <mxGeometry width="160" relative="1" as="geometry">
            <mxPoint x="250" y="740" as="sourcePoint" />
            <mxPoint x="410" y="740" as="targetPoint" />
          </mxGeometry>
        </mxCell>
      </root>
    </mxGraphModel>
  </diagram>
  <diagram id="AG5b-vYYI_tL2L9XTvoG" name="Page-7">
    <mxGraphModel dx="782" dy="436" grid="1" gridSize="10" guides="1" tooltips="1" connect="1" arrows="1" fold="1" page="1" pageScale="1" pageWidth="827" pageHeight="1169" math="0" shadow="0">
      <root>
        <mxCell id="sJC62pZ7g8IFYyRhUCOS-0" />
        <mxCell id="sJC62pZ7g8IFYyRhUCOS-1" parent="sJC62pZ7g8IFYyRhUCOS-0" />
        <mxCell id="sJC62pZ7g8IFYyRhUCOS-3" value="Analysis saving" style="text;html=1;align=center;verticalAlign=middle;resizable=0;points=[];autosize=1;strokeColor=none;fillColor=none;fontSize=16;" parent="sJC62pZ7g8IFYyRhUCOS-1" vertex="1">
          <mxGeometry x="349" y="60" width="130" height="20" as="geometry" />
        </mxCell>
        <mxCell id="rAg2H9bfy1Jp1BPKTZYW-0" value="&lt;p style=&quot;margin: 0px ; margin-top: 4px ; text-align: center&quot;&gt;&lt;i&gt;&amp;lt;&amp;lt;Interface&amp;gt;&amp;gt;&lt;/i&gt;&lt;br&gt;&lt;b&gt;FileController&lt;/b&gt;&lt;/p&gt;&lt;hr size=&quot;1&quot;&gt;&lt;p style=&quot;margin: 0px ; margin-left: 4px&quot;&gt;+ save( ): void&lt;/p&gt;&lt;p style=&quot;margin: 0px ; margin-left: 4px&quot;&gt;+ setDestination(File): void&lt;/p&gt;&lt;p style=&quot;margin: 0px ; margin-left: 4px&quot;&gt;&lt;br&gt;&lt;/p&gt;" style="verticalAlign=top;align=left;overflow=fill;fontSize=12;fontFamily=Helvetica;html=1;" parent="sJC62pZ7g8IFYyRhUCOS-1" vertex="1">
          <mxGeometry x="336" y="650" width="156" height="80" as="geometry" />
        </mxCell>
        <mxCell id="ht2SmpU_YVQR7jInhks1-0" value="AnalysisImpl" style="swimlane;fontStyle=1;align=center;verticalAlign=top;childLayout=stackLayout;horizontal=1;startSize=26;horizontalStack=0;resizeParent=1;resizeParentMax=0;resizeLast=0;collapsible=1;marginBottom=0;fontSize=12;" parent="sJC62pZ7g8IFYyRhUCOS-1" vertex="1">
          <mxGeometry x="70" y="560" width="160" height="34" as="geometry" />
        </mxCell>
        <mxCell id="ht2SmpU_YVQR7jInhks1-2" value="" style="line;strokeWidth=1;fillColor=none;align=left;verticalAlign=middle;spacingTop=-1;spacingLeft=3;spacingRight=3;rotatable=0;labelPosition=right;points=[];portConstraint=eastwest;fontSize=12;" parent="ht2SmpU_YVQR7jInhks1-0" vertex="1">
          <mxGeometry y="26" width="160" height="8" as="geometry" />
        </mxCell>
        <mxCell id="ht2SmpU_YVQR7jInhks1-4" value="&lt;p style=&quot;margin: 0px ; margin-top: 4px ; text-align: center&quot;&gt;&lt;i&gt;&amp;lt;&amp;lt;Interface&amp;gt;&amp;gt;&lt;/i&gt;&lt;br&gt;&lt;b&gt;Analysis&lt;/b&gt;&lt;/p&gt;&lt;hr size=&quot;1&quot;&gt;&lt;p style=&quot;margin: 0px ; margin-left: 4px&quot;&gt;+ getAnalysisDescription( ): String&lt;/p&gt;&lt;p style=&quot;margin: 0px ; margin-left: 4px&quot;&gt;+ getTextualAnalysis( ): List&amp;lt;String&amp;gt;&lt;/p&gt;&lt;p style=&quot;margin: 0px ; margin-left: 4px&quot;&gt;+ fairLiking( ): List&amp;lt;String&amp;gt;&lt;/p&gt;&lt;p style=&quot;margin: 0px ; margin-left: 4px&quot;&gt;+ profit( ): List&amp;lt;String&amp;gt;&lt;/p&gt;&lt;p style=&quot;margin: 0px ; margin-left: 4px&quot;&gt;+ tickets( ): List&amp;lt;String&amp;gt;&lt;/p&gt;&lt;p style=&quot;margin: 0px ; margin-left: 4px&quot;&gt;&lt;br&gt;&lt;/p&gt;" style="verticalAlign=top;align=left;overflow=fill;fontSize=12;fontFamily=Helvetica;html=1;" parent="sJC62pZ7g8IFYyRhUCOS-1" vertex="1">
          <mxGeometry x="90" y="330" width="201" height="120" as="geometry" />
        </mxCell>
        <mxCell id="ht2SmpU_YVQR7jInhks1-9" value="SaveAnalysisMenu" style="swimlane;fontStyle=1;align=center;verticalAlign=top;childLayout=stackLayout;horizontal=1;startSize=26;horizontalStack=0;resizeParent=1;resizeParentMax=0;resizeLast=0;collapsible=1;marginBottom=0;fontSize=12;" parent="sJC62pZ7g8IFYyRhUCOS-1" vertex="1">
          <mxGeometry x="560" y="380" width="171" height="60" as="geometry" />
        </mxCell>
        <mxCell id="ht2SmpU_YVQR7jInhks1-11" value="" style="line;strokeWidth=1;fillColor=none;align=left;verticalAlign=middle;spacingTop=-1;spacingLeft=3;spacingRight=3;rotatable=0;labelPosition=right;points=[];portConstraint=eastwest;fontSize=12;" parent="ht2SmpU_YVQR7jInhks1-9" vertex="1">
          <mxGeometry y="26" width="171" height="8" as="geometry" />
        </mxCell>
        <mxCell id="ht2SmpU_YVQR7jInhks1-12" value="+ createSaveMenu( ): JMenu" style="text;strokeColor=none;fillColor=none;align=left;verticalAlign=top;spacingLeft=4;spacingRight=4;overflow=hidden;rotatable=0;points=[[0,0.5],[1,0.5]];portConstraint=eastwest;fontSize=12;" parent="ht2SmpU_YVQR7jInhks1-9" vertex="1">
          <mxGeometry y="34" width="171" height="26" as="geometry" />
        </mxCell>
        <mxCell id="ht2SmpU_YVQR7jInhks1-13" value="ChartImgBuilder" style="swimlane;fontStyle=1;align=center;verticalAlign=top;childLayout=stackLayout;horizontal=1;startSize=26;horizontalStack=0;resizeParent=1;resizeParentMax=0;resizeLast=0;collapsible=1;marginBottom=0;fontSize=12;" parent="sJC62pZ7g8IFYyRhUCOS-1" vertex="1">
          <mxGeometry x="291" y="136" width="160" height="68" as="geometry" />
        </mxCell>
        <mxCell id="ht2SmpU_YVQR7jInhks1-14" value="- HOME: String&#xa;- SEPARATOR: String" style="text;strokeColor=none;fillColor=none;align=left;verticalAlign=top;spacingLeft=4;spacingRight=4;overflow=hidden;rotatable=0;points=[[0,0.5],[1,0.5]];portConstraint=eastwest;fontSize=12;" parent="ht2SmpU_YVQR7jInhks1-13" vertex="1">
          <mxGeometry y="26" width="160" height="34" as="geometry" />
        </mxCell>
        <mxCell id="ht2SmpU_YVQR7jInhks1-15" value="" style="line;strokeWidth=1;fillColor=none;align=left;verticalAlign=middle;spacingTop=-1;spacingLeft=3;spacingRight=3;rotatable=0;labelPosition=right;points=[];portConstraint=eastwest;fontSize=12;" parent="ht2SmpU_YVQR7jInhks1-13" vertex="1">
          <mxGeometry y="60" width="160" height="8" as="geometry" />
        </mxCell>
        <mxCell id="ht2SmpU_YVQR7jInhks1-17" value="&lt;p style=&quot;margin: 0px ; margin-top: 4px ; text-align: center&quot;&gt;&lt;i&gt;&amp;lt;&amp;lt;Interface&amp;gt;&amp;gt;&lt;/i&gt;&lt;br&gt;&lt;b&gt;ChartImg&lt;/b&gt;&lt;/p&gt;&lt;hr size=&quot;1&quot;&gt;&lt;p style=&quot;margin: 0px ; margin-left: 4px&quot;&gt;+ profitChartImg( ): File&lt;/p&gt;&lt;p style=&quot;margin: 0px ; margin-left: 4px&quot;&gt;+ fairChartImg( ): File&lt;/p&gt;&lt;p style=&quot;margin: 0px ; margin-left: 4px&quot;&gt;&lt;br&gt;&lt;/p&gt;" style="verticalAlign=top;align=left;overflow=fill;fontSize=12;fontFamily=Helvetica;html=1;" parent="sJC62pZ7g8IFYyRhUCOS-1" vertex="1">
          <mxGeometry x="560" y="136" width="156" height="80" as="geometry" />
        </mxCell>
        <mxCell id="ht2SmpU_YVQR7jInhks1-18" value="AnalysisDialog" style="swimlane;fontStyle=1;align=center;verticalAlign=top;childLayout=stackLayout;horizontal=1;startSize=26;horizontalStack=0;resizeParent=1;resizeParentMax=0;resizeLast=0;collapsible=1;marginBottom=0;fontSize=12;" parent="sJC62pZ7g8IFYyRhUCOS-1" vertex="1">
          <mxGeometry x="610" y="560" width="160" height="34" as="geometry" />
        </mxCell>
        <mxCell id="ht2SmpU_YVQR7jInhks1-20" value="" style="line;strokeWidth=1;fillColor=none;align=left;verticalAlign=middle;spacingTop=-1;spacingLeft=3;spacingRight=3;rotatable=0;labelPosition=right;points=[];portConstraint=eastwest;fontSize=12;" parent="ht2SmpU_YVQR7jInhks1-18" vertex="1">
          <mxGeometry y="26" width="160" height="8" as="geometry" />
        </mxCell>
        <mxCell id="ht2SmpU_YVQR7jInhks1-22" value="" style="endArrow=open;endFill=1;endSize=12;html=1;rounded=0;fontSize=12;exitX=0.314;exitY=-0.012;exitDx=0;exitDy=0;exitPerimeter=0;entryX=0.711;entryY=1.025;entryDx=0;entryDy=0;entryPerimeter=0;startArrow=none;" parent="sJC62pZ7g8IFYyRhUCOS-1" source="ht2SmpU_YVQR7jInhks1-30" target="ht2SmpU_YVQR7jInhks1-4" edge="1">
          <mxGeometry width="160" relative="1" as="geometry">
            <mxPoint x="320" y="520" as="sourcePoint" />
            <mxPoint x="480" y="520" as="targetPoint" />
          </mxGeometry>
        </mxCell>
        <mxCell id="ht2SmpU_YVQR7jInhks1-23" value="" style="endArrow=open;endFill=1;endSize=12;html=1;rounded=0;fontSize=12;entryX=0.292;entryY=1.154;entryDx=0;entryDy=0;entryPerimeter=0;exitX=0.75;exitY=0;exitDx=0;exitDy=0;startArrow=none;" parent="sJC62pZ7g8IFYyRhUCOS-1" source="ht2SmpU_YVQR7jInhks1-31" target="ht2SmpU_YVQR7jInhks1-12" edge="1">
          <mxGeometry width="160" relative="1" as="geometry">
            <mxPoint x="320" y="520" as="sourcePoint" />
            <mxPoint x="480" y="520" as="targetPoint" />
          </mxGeometry>
        </mxCell>
        <mxCell id="ht2SmpU_YVQR7jInhks1-24" value="" style="endArrow=block;dashed=1;endFill=0;endSize=12;html=1;rounded=0;fontSize=12;" parent="sJC62pZ7g8IFYyRhUCOS-1" edge="1">
          <mxGeometry width="160" relative="1" as="geometry">
            <mxPoint x="450" y="175" as="sourcePoint" />
            <mxPoint x="560" y="175" as="targetPoint" />
          </mxGeometry>
        </mxCell>
        <mxCell id="ht2SmpU_YVQR7jInhks1-26" value="Use" style="endArrow=open;endSize=12;dashed=1;html=1;rounded=0;fontSize=12;entryX=0.5;entryY=1;entryDx=0;entryDy=0;exitX=0.456;exitY=-0.017;exitDx=0;exitDy=0;exitPerimeter=0;" parent="sJC62pZ7g8IFYyRhUCOS-1" edge="1">
          <mxGeometry width="160" relative="1" as="geometry">
            <mxPoint x="652.9760000000001" y="378.98" as="sourcePoint" />
            <mxPoint x="653" y="216" as="targetPoint" />
          </mxGeometry>
        </mxCell>
        <mxCell id="ht2SmpU_YVQR7jInhks1-27" value="" style="endArrow=block;dashed=1;endFill=0;endSize=12;html=1;rounded=0;fontSize=12;exitX=0.5;exitY=0;exitDx=0;exitDy=0;entryX=0.5;entryY=1;entryDx=0;entryDy=0;" parent="sJC62pZ7g8IFYyRhUCOS-1" target="rAg2H9bfy1Jp1BPKTZYW-0" edge="1">
          <mxGeometry width="160" relative="1" as="geometry">
            <mxPoint x="414" y="795" as="sourcePoint" />
            <mxPoint x="480" y="675" as="targetPoint" />
          </mxGeometry>
        </mxCell>
        <mxCell id="ht2SmpU_YVQR7jInhks1-28" value="" style="endArrow=block;dashed=1;endFill=0;endSize=12;html=1;rounded=0;fontSize=12;exitX=0.5;exitY=0;exitDx=0;exitDy=0;entryX=0.303;entryY=1.017;entryDx=0;entryDy=0;entryPerimeter=0;" parent="sJC62pZ7g8IFYyRhUCOS-1" source="ht2SmpU_YVQR7jInhks1-0" target="ht2SmpU_YVQR7jInhks1-4" edge="1">
          <mxGeometry width="160" relative="1" as="geometry">
            <mxPoint x="310" y="640" as="sourcePoint" />
            <mxPoint x="470" y="640" as="targetPoint" />
          </mxGeometry>
        </mxCell>
        <mxCell id="ht2SmpU_YVQR7jInhks1-29" value="1" style="endArrow=open;html=1;endSize=12;startArrow=diamondThin;startSize=14;startFill=1;edgeStyle=orthogonalEdgeStyle;align=left;verticalAlign=bottom;rounded=0;fontSize=12;exitX=0.696;exitY=1.192;exitDx=0;exitDy=0;exitPerimeter=0;" parent="sJC62pZ7g8IFYyRhUCOS-1" target="ht2SmpU_YVQR7jInhks1-18" edge="1">
          <mxGeometry x="-0.4927" y="-20" relative="1" as="geometry">
            <mxPoint x="679.0160000000001" y="439.99199999999996" as="sourcePoint" />
            <mxPoint x="680.0799999999999" y="532.9939999999999" as="targetPoint" />
            <Array as="points">
              <mxPoint x="679" y="445" />
              <mxPoint x="680" y="445" />
            </Array>
            <mxPoint as="offset" />
          </mxGeometry>
        </mxCell>
        <mxCell id="ht2SmpU_YVQR7jInhks1-31" value="view" style="text;html=1;align=center;verticalAlign=middle;resizable=0;points=[];autosize=1;strokeColor=none;fillColor=none;fontSize=12;" parent="sJC62pZ7g8IFYyRhUCOS-1" vertex="1">
          <mxGeometry x="500" y="550" width="40" height="20" as="geometry" />
        </mxCell>
        <mxCell id="ht2SmpU_YVQR7jInhks1-32" value="" style="endArrow=none;endFill=1;endSize=12;html=1;rounded=0;fontSize=12;entryX=0.292;entryY=1.154;entryDx=0;entryDy=0;entryPerimeter=0;exitX=0.75;exitY=0;exitDx=0;exitDy=0;" parent="sJC62pZ7g8IFYyRhUCOS-1" source="rAg2H9bfy1Jp1BPKTZYW-0" target="ht2SmpU_YVQR7jInhks1-31" edge="1">
          <mxGeometry width="160" relative="1" as="geometry">
            <mxPoint x="453" y="650" as="sourcePoint" />
            <mxPoint x="609.932" y="444.0039999999999" as="targetPoint" />
          </mxGeometry>
        </mxCell>
        <mxCell id="ht2SmpU_YVQR7jInhks1-30" value="model" style="text;html=1;align=center;verticalAlign=middle;resizable=0;points=[];autosize=1;strokeColor=none;fillColor=none;fontSize=12;" parent="sJC62pZ7g8IFYyRhUCOS-1" vertex="1">
          <mxGeometry x="291" y="550" width="50" height="20" as="geometry" />
        </mxCell>
        <mxCell id="ht2SmpU_YVQR7jInhks1-33" value="" style="endArrow=none;endFill=1;endSize=12;html=1;rounded=0;fontSize=12;exitX=0.314;exitY=-0.012;exitDx=0;exitDy=0;exitPerimeter=0;entryX=0.711;entryY=1.025;entryDx=0;entryDy=0;entryPerimeter=0;" parent="sJC62pZ7g8IFYyRhUCOS-1" source="rAg2H9bfy1Jp1BPKTZYW-0" target="ht2SmpU_YVQR7jInhks1-30" edge="1">
          <mxGeometry width="160" relative="1" as="geometry">
            <mxPoint x="384.9839999999999" y="649.04" as="sourcePoint" />
            <mxPoint x="232.91100000000006" y="453" as="targetPoint" />
          </mxGeometry>
        </mxCell>
        <mxCell id="it3ZZfcpreP-iPLWcPwC-1" value="FileControllerImpl" style="swimlane;fontStyle=1;align=center;verticalAlign=top;childLayout=stackLayout;horizontal=1;startSize=26;horizontalStack=0;resizeParent=1;resizeParentMax=0;resizeLast=0;collapsible=1;marginBottom=0;fontSize=12;" parent="sJC62pZ7g8IFYyRhUCOS-1" vertex="1">
          <mxGeometry x="334" y="790" width="160" height="88" as="geometry" />
        </mxCell>
        <mxCell id="it3ZZfcpreP-iPLWcPwC-2" value="- HOME: String&#xa;- SEPARATOR: String&#xa;- DEFAULT_FILE: String" style="text;strokeColor=none;fillColor=none;align=left;verticalAlign=top;spacingLeft=4;spacingRight=4;overflow=hidden;rotatable=0;points=[[0,0.5],[1,0.5]];portConstraint=eastwest;fontSize=12;" parent="it3ZZfcpreP-iPLWcPwC-1" vertex="1">
          <mxGeometry y="26" width="160" height="54" as="geometry" />
        </mxCell>
        <mxCell id="it3ZZfcpreP-iPLWcPwC-3" value="" style="line;strokeWidth=1;fillColor=none;align=left;verticalAlign=middle;spacingTop=-1;spacingLeft=3;spacingRight=3;rotatable=0;labelPosition=right;points=[];portConstraint=eastwest;fontSize=12;" parent="it3ZZfcpreP-iPLWcPwC-1" vertex="1">
          <mxGeometry y="80" width="160" height="8" as="geometry" />
        </mxCell>
      </root>
    </mxGraphModel>
  </diagram>
  <diagram id="HSHqLxbJwb3MUCIMIkQU" name="Page-8">
    <mxGraphModel dx="782" dy="436" grid="1" gridSize="10" guides="1" tooltips="1" connect="1" arrows="1" fold="1" page="1" pageScale="1" pageWidth="827" pageHeight="1169" math="0" shadow="0">
      <root>
        <mxCell id="Nxu481jT8Yj_GYl5ntoT-0" />
        <mxCell id="Nxu481jT8Yj_GYl5ntoT-1" parent="Nxu481jT8Yj_GYl5ntoT-0" />
        <mxCell id="UQXdijBqwbiRrPYaWVQ8-1" value="" style="endArrow=block;endFill=1;html=1;edgeStyle=orthogonalEdgeStyle;align=left;verticalAlign=top;rounded=0;" parent="Nxu481jT8Yj_GYl5ntoT-1" edge="1">
          <mxGeometry x="-1" relative="1" as="geometry">
            <mxPoint x="149.5" y="350" as="sourcePoint" />
            <mxPoint x="150" y="260" as="targetPoint" />
            <Array as="points">
              <mxPoint x="150" y="320" />
              <mxPoint x="150" y="320" />
            </Array>
          </mxGeometry>
        </mxCell>
        <mxCell id="UQXdijBqwbiRrPYaWVQ8-3" value="JPanel" style="html=1;" parent="Nxu481jT8Yj_GYl5ntoT-1" vertex="1">
          <mxGeometry x="95" y="210" width="110" height="50" as="geometry" />
        </mxCell>
        <mxCell id="UQXdijBqwbiRrPYaWVQ8-4" value="SimulationPanel" style="swimlane;fontStyle=1;align=center;verticalAlign=top;childLayout=stackLayout;horizontal=1;startSize=26;horizontalStack=0;resizeParent=1;resizeParentMax=0;resizeLast=0;collapsible=1;marginBottom=0;" parent="Nxu481jT8Yj_GYl5ntoT-1" vertex="1">
          <mxGeometry x="70" y="350" width="160" height="170" as="geometry" />
        </mxCell>
        <mxCell id="UQXdijBqwbiRrPYaWVQ8-5" value="-adult : List&lt;CircleImpl&gt;&#xa;-baby : List&lt;CircleImpl&gt;&#xa;-pass : List&gt;CircleImpl&gt;" style="text;strokeColor=none;fillColor=none;align=left;verticalAlign=top;spacingLeft=4;spacingRight=4;overflow=hidden;rotatable=0;points=[[0,0.5],[1,0.5]];portConstraint=eastwest;" parent="UQXdijBqwbiRrPYaWVQ8-4" vertex="1">
          <mxGeometry y="26" width="160" height="54" as="geometry" />
        </mxCell>
        <mxCell id="UQXdijBqwbiRrPYaWVQ8-6" value="" style="line;strokeWidth=1;fillColor=none;align=left;verticalAlign=middle;spacingTop=-1;spacingLeft=3;spacingRight=3;rotatable=0;labelPosition=right;points=[];portConstraint=eastwest;" parent="UQXdijBqwbiRrPYaWVQ8-4" vertex="1">
          <mxGeometry y="80" width="160" height="8" as="geometry" />
        </mxCell>
        <mxCell id="UQXdijBqwbiRrPYaWVQ8-7" value="+simulationPanel() : void&#xa;+updateSimulation() : void&#xa;+paintComponent() : voidd&#xa;+Map&lt;&gt; : map&lt;&gt;&#xa;+close() : void" style="text;strokeColor=none;fillColor=none;align=left;verticalAlign=top;spacingLeft=4;spacingRight=4;overflow=hidden;rotatable=0;points=[[0,0.5],[1,0.5]];portConstraint=eastwest;" parent="UQXdijBqwbiRrPYaWVQ8-4" vertex="1">
          <mxGeometry y="88" width="160" height="82" as="geometry" />
        </mxCell>
        <mxCell id="p6TTGMhjME_Rvlnb8_Zx-0" value="DesignPerson" style="swimlane;fontStyle=1;align=center;verticalAlign=top;childLayout=stackLayout;horizontal=1;startSize=30;horizontalStack=0;resizeParent=1;resizeParentMax=0;resizeLast=0;collapsible=1;marginBottom=0;" vertex="1" parent="Nxu481jT8Yj_GYl5ntoT-1">
          <mxGeometry x="530" y="290" width="160" height="98" as="geometry" />
        </mxCell>
        <mxCell id="p6TTGMhjME_Rvlnb8_Zx-1" value="" style="line;strokeWidth=1;fillColor=none;align=left;verticalAlign=middle;spacingTop=-1;spacingLeft=3;spacingRight=3;rotatable=0;labelPosition=right;points=[];portConstraint=eastwest;" vertex="1" parent="p6TTGMhjME_Rvlnb8_Zx-0">
          <mxGeometry y="30" width="160" height="8" as="geometry" />
        </mxCell>
        <mxCell id="p6TTGMhjME_Rvlnb8_Zx-2" value="+createAdult() : int&#xa;+createBaby() : int&#xa;+createPass() : int" style="text;strokeColor=none;fillColor=none;align=left;verticalAlign=top;spacingLeft=4;spacingRight=4;overflow=hidden;rotatable=0;points=[[0,0.5],[1,0.5]];portConstraint=eastwest;" vertex="1" parent="p6TTGMhjME_Rvlnb8_Zx-0">
          <mxGeometry y="38" width="160" height="60" as="geometry" />
        </mxCell>
        <mxCell id="kxjzkQRdtVQg88dWR6_Y-1" style="edgeStyle=orthogonalEdgeStyle;rounded=0;orthogonalLoop=1;jettySize=auto;html=1;endArrow=none;endFill=0;" edge="1" parent="Nxu481jT8Yj_GYl5ntoT-1" source="UQXdijBqwbiRrPYaWVQ8-5" target="p6TTGMhjME_Rvlnb8_Zx-0">
          <mxGeometry relative="1" as="geometry" />
        </mxCell>
        <mxCell id="4GVYhKII9E2UtGRg6DJH-3" style="edgeStyle=orthogonalEdgeStyle;rounded=0;orthogonalLoop=1;jettySize=auto;html=1;endArrow=none;endFill=0;" edge="1" parent="Nxu481jT8Yj_GYl5ntoT-1" source="4GVYhKII9E2UtGRg6DJH-0">
          <mxGeometry relative="1" as="geometry">
            <mxPoint x="605" y="280" as="targetPoint" />
          </mxGeometry>
        </mxCell>
        <mxCell id="4GVYhKII9E2UtGRg6DJH-0" value="&lt;p style=&quot;margin: 0px ; margin-top: 4px ; text-align: center&quot;&gt;&lt;i&gt;&amp;lt;&amp;lt;Interface&amp;gt;&amp;gt;&lt;/i&gt;&lt;br&gt;&lt;b&gt;Circle&lt;/b&gt;&lt;/p&gt;&lt;hr size=&quot;1&quot;&gt;&lt;p style=&quot;margin: 0px ; margin-left: 4px&quot;&gt;+setX() : void&lt;/p&gt;&lt;p style=&quot;margin: 0px ; margin-left: 4px&quot;&gt;+setY() : void&lt;/p&gt;&lt;p style=&quot;margin: 0px ; margin-left: 4px&quot;&gt;+setRadius(double radius) : void&lt;/p&gt;&lt;p style=&quot;margin: 0px ; margin-left: 4px&quot;&gt;+setColor(Color color) : void&lt;/p&gt;&lt;p style=&quot;margin: 0px ; margin-left: 4px&quot;&gt;+getRadius() : void&lt;/p&gt;&lt;p style=&quot;margin: 0px ; margin-left: 4px&quot;&gt;+getColor() : void&lt;/p&gt;" style="verticalAlign=top;align=left;overflow=fill;fontSize=12;fontFamily=Helvetica;html=1;" vertex="1" parent="Nxu481jT8Yj_GYl5ntoT-1">
          <mxGeometry x="510" y="20" width="190" height="140" as="geometry" />
        </mxCell>
        <mxCell id="4GVYhKII9E2UtGRg6DJH-1" value="" style="endArrow=block;dashed=1;endFill=0;endSize=12;html=1;rounded=0;" edge="1" parent="Nxu481jT8Yj_GYl5ntoT-1">
          <mxGeometry width="160" relative="1" as="geometry">
            <mxPoint x="350" y="80" as="sourcePoint" />
            <mxPoint x="510" y="80" as="targetPoint" />
          </mxGeometry>
        </mxCell>
        <mxCell id="4GVYhKII9E2UtGRg6DJH-2" value="CircleImpl" style="swimlane;fontStyle=1;align=center;verticalAlign=top;childLayout=stackLayout;horizontal=1;startSize=26;horizontalStack=0;resizeParent=1;resizeParentMax=0;resizeLast=0;collapsible=1;marginBottom=0;" vertex="1" parent="Nxu481jT8Yj_GYl5ntoT-1">
          <mxGeometry x="190" y="70" width="160" height="25" as="geometry" />
        </mxCell>
      </root>
    </mxGraphModel>
  </diagram>
  <diagram id="-x1dGvfdJhDv3Lzgcm8G" name="Page-9">
    <mxGraphModel dx="782" dy="436" grid="1" gridSize="10" guides="1" tooltips="1" connect="1" arrows="1" fold="1" page="1" pageScale="1" pageWidth="827" pageHeight="1169" math="0" shadow="0">
      <root>
        <mxCell id="5taaMtV1y4A_bSUk_6Z5-0" />
        <mxCell id="5taaMtV1y4A_bSUk_6Z5-1" parent="5taaMtV1y4A_bSUk_6Z5-0" />
        <mxCell id="capu9Ub-TDzfIIujU_sR-0" value="SimulationPanel" style="swimlane;fontStyle=0;childLayout=stackLayout;horizontal=1;startSize=26;fillColor=none;horizontalStack=0;resizeParent=1;resizeParentMax=0;resizeLast=0;collapsible=1;marginBottom=0;" vertex="1" parent="5taaMtV1y4A_bSUk_6Z5-1">
          <mxGeometry x="40" y="810" width="140" height="30" as="geometry" />
        </mxCell>
        <mxCell id="capu9Ub-TDzfIIujU_sR-4" value="model.gui.position.Position" style="swimlane;fontStyle=1;align=center;verticalAlign=top;childLayout=stackLayout;horizontal=1;startSize=26;horizontalStack=0;resizeParent=1;resizeParentMax=0;resizeLast=0;collapsible=1;marginBottom=0;" vertex="1" parent="5taaMtV1y4A_bSUk_6Z5-1">
          <mxGeometry x="360" y="660" width="160" height="90" as="geometry" />
        </mxCell>
        <mxCell id="capu9Ub-TDzfIIujU_sR-6" value="" style="line;strokeWidth=1;fillColor=none;align=left;verticalAlign=middle;spacingTop=-1;spacingLeft=3;spacingRight=3;rotatable=0;labelPosition=right;points=[];portConstraint=eastwest;" vertex="1" parent="capu9Ub-TDzfIIujU_sR-4">
          <mxGeometry y="26" width="160" height="8" as="geometry" />
        </mxCell>
        <mxCell id="capu9Ub-TDzfIIujU_sR-7" value="+Position() : int&#xa;+getFirst() : int&#xa;+getSecond() : int" style="text;strokeColor=none;fillColor=none;align=left;verticalAlign=top;spacingLeft=4;spacingRight=4;overflow=hidden;rotatable=0;points=[[0,0.5],[1,0.5]];portConstraint=eastwest;" vertex="1" parent="capu9Ub-TDzfIIujU_sR-4">
          <mxGeometry y="34" width="160" height="56" as="geometry" />
        </mxCell>
        <mxCell id="_aAFKrAUbFuQshz0-Grj-10" style="edgeStyle=orthogonalEdgeStyle;rounded=0;orthogonalLoop=1;jettySize=auto;html=1;entryX=0.361;entryY=0.016;entryDx=0;entryDy=0;entryPerimeter=0;endArrow=none;endFill=0;" edge="1" parent="5taaMtV1y4A_bSUk_6Z5-1" source="capu9Ub-TDzfIIujU_sR-8" target="capu9Ub-TDzfIIujU_sR-12">
          <mxGeometry relative="1" as="geometry" />
        </mxCell>
        <mxCell id="_aAFKrAUbFuQshz0-Grj-13" style="edgeStyle=orthogonalEdgeStyle;rounded=0;orthogonalLoop=1;jettySize=auto;html=1;entryX=0;entryY=0.116;entryDx=0;entryDy=0;entryPerimeter=0;endArrow=none;endFill=0;" edge="1" parent="5taaMtV1y4A_bSUk_6Z5-1" source="capu9Ub-TDzfIIujU_sR-8" target="capu9Ub-TDzfIIujU_sR-4">
          <mxGeometry relative="1" as="geometry" />
        </mxCell>
        <mxCell id="capu9Ub-TDzfIIujU_sR-8" value="model.gui.position.Repaint" style="swimlane;fontStyle=1;align=center;verticalAlign=top;childLayout=stackLayout;horizontal=1;startSize=26;horizontalStack=0;resizeParent=1;resizeParentMax=0;resizeLast=0;collapsible=1;marginBottom=0;" vertex="1" parent="5taaMtV1y4A_bSUk_6Z5-1">
          <mxGeometry x="360" y="800" width="160" height="80" as="geometry" />
        </mxCell>
        <mxCell id="capu9Ub-TDzfIIujU_sR-10" value="" style="line;strokeWidth=1;fillColor=none;align=left;verticalAlign=middle;spacingTop=-1;spacingLeft=3;spacingRight=3;rotatable=0;labelPosition=right;points=[];portConstraint=eastwest;" vertex="1" parent="capu9Ub-TDzfIIujU_sR-8">
          <mxGeometry y="26" width="160" height="8" as="geometry" />
        </mxCell>
        <mxCell id="capu9Ub-TDzfIIujU_sR-11" value="+RepaintPeople() : int&#xa;_void Repaint() : void" style="text;strokeColor=none;fillColor=none;align=left;verticalAlign=top;spacingLeft=4;spacingRight=4;overflow=hidden;rotatable=0;points=[[0,0.5],[1,0.5]];portConstraint=eastwest;" vertex="1" parent="capu9Ub-TDzfIIujU_sR-8">
          <mxGeometry y="34" width="160" height="46" as="geometry" />
        </mxCell>
        <mxCell id="capu9Ub-TDzfIIujU_sR-12" value="model.gui.position.RandomPosition" style="swimlane;fontStyle=1;align=center;verticalAlign=top;childLayout=stackLayout;horizontal=1;startSize=26;horizontalStack=0;resizeParent=1;resizeParentMax=0;resizeLast=0;collapsible=1;marginBottom=0;" vertex="1" parent="5taaMtV1y4A_bSUk_6Z5-1">
          <mxGeometry x="360" y="930" width="220" height="86" as="geometry" />
        </mxCell>
        <mxCell id="capu9Ub-TDzfIIujU_sR-13" value="+ field: type" style="text;strokeColor=none;fillColor=none;align=left;verticalAlign=top;spacingLeft=4;spacingRight=4;overflow=hidden;rotatable=0;points=[[0,0.5],[1,0.5]];portConstraint=eastwest;" vertex="1" parent="capu9Ub-TDzfIIujU_sR-12">
          <mxGeometry y="26" width="220" height="26" as="geometry" />
        </mxCell>
        <mxCell id="capu9Ub-TDzfIIujU_sR-14" value="" style="line;strokeWidth=1;fillColor=none;align=left;verticalAlign=middle;spacingTop=-1;spacingLeft=3;spacingRight=3;rotatable=0;labelPosition=right;points=[];portConstraint=eastwest;" vertex="1" parent="capu9Ub-TDzfIIujU_sR-12">
          <mxGeometry y="52" width="220" height="8" as="geometry" />
        </mxCell>
        <mxCell id="capu9Ub-TDzfIIujU_sR-15" value="+ method(type): type" style="text;strokeColor=none;fillColor=none;align=left;verticalAlign=top;spacingLeft=4;spacingRight=4;overflow=hidden;rotatable=0;points=[[0,0.5],[1,0.5]];portConstraint=eastwest;" vertex="1" parent="capu9Ub-TDzfIIujU_sR-12">
          <mxGeometry y="60" width="220" height="26" as="geometry" />
        </mxCell>
        <mxCell id="_aAFKrAUbFuQshz0-Grj-9" style="edgeStyle=orthogonalEdgeStyle;rounded=0;orthogonalLoop=1;jettySize=auto;html=1;endArrow=none;endFill=0;" edge="1" parent="5taaMtV1y4A_bSUk_6Z5-1" source="_aAFKrAUbFuQshz0-Grj-0">
          <mxGeometry relative="1" as="geometry">
            <mxPoint x="520" y="699" as="targetPoint" />
          </mxGeometry>
        </mxCell>
        <mxCell id="_aAFKrAUbFuQshz0-Grj-0" value="CircleImpl" style="swimlane;fontStyle=0;childLayout=stackLayout;horizontal=1;startSize=26;fillColor=none;horizontalStack=0;resizeParent=1;resizeParentMax=0;resizeLast=0;collapsible=1;marginBottom=0;" vertex="1" parent="5taaMtV1y4A_bSUk_6Z5-1">
          <mxGeometry x="620" y="770" width="140" height="30" as="geometry" />
        </mxCell>
        <mxCell id="_aAFKrAUbFuQshz0-Grj-8" style="edgeStyle=orthogonalEdgeStyle;rounded=0;orthogonalLoop=1;jettySize=auto;html=1;entryX=1;entryY=0.75;entryDx=0;entryDy=0;endArrow=none;endFill=0;" edge="1" parent="5taaMtV1y4A_bSUk_6Z5-1" target="capu9Ub-TDzfIIujU_sR-0">
          <mxGeometry relative="1" as="geometry">
            <mxPoint x="360" y="839" as="sourcePoint" />
          </mxGeometry>
        </mxCell>
      </root>
    </mxGraphModel>
  </diagram>
  <diagram id="xpA7KSIsWhdX3zjD28uL" name="Page-10">
    <mxGraphModel dx="782" dy="436" grid="1" gridSize="10" guides="1" tooltips="1" connect="1" arrows="1" fold="1" page="1" pageScale="1" pageWidth="827" pageHeight="1169" math="0" shadow="0">
      <root>
        <mxCell id="dg2Ts7AxLsVxZVvWOq4d-0" />
        <mxCell id="dg2Ts7AxLsVxZVvWOq4d-1" parent="dg2Ts7AxLsVxZVvWOq4d-0" />
      </root>
    </mxGraphModel>
  </diagram>
  <diagram id="50UaSse0mGhQjaVJ0bHg" name="Page-11">
    <mxGraphModel dx="782" dy="436" grid="1" gridSize="10" guides="1" tooltips="1" connect="1" arrows="1" fold="1" page="1" pageScale="1" pageWidth="827" pageHeight="1169" math="0" shadow="0">
      <root>
        <mxCell id="9yjMwZ4R7Qxf8GzLq_9T-0" />
        <mxCell id="9yjMwZ4R7Qxf8GzLq_9T-1" parent="9yjMwZ4R7Qxf8GzLq_9T-0" />
      </root>
    </mxGraphModel>
  </diagram>
  <diagram id="wawUzO04q2C7ykXUK5e2" name="Page-12">
    <mxGraphModel dx="782" dy="436" grid="1" gridSize="10" guides="1" tooltips="1" connect="1" arrows="1" fold="1" page="1" pageScale="1" pageWidth="827" pageHeight="1169" math="0" shadow="0">
      <root>
        <mxCell id="XBwy3TFs0vc0ivHND25a-0" />
        <mxCell id="XBwy3TFs0vc0ivHND25a-1" parent="XBwy3TFs0vc0ivHND25a-0" />
        <mxCell id="m9F4L__nE2iXAKgSJBw7-1" style="edgeStyle=orthogonalEdgeStyle;rounded=0;orthogonalLoop=1;jettySize=auto;html=1;entryX=0;entryY=0.75;entryDx=0;entryDy=0;endArrow=none;endFill=0;" parent="XBwy3TFs0vc0ivHND25a-1" source="XBwy3TFs0vc0ivHND25a-6" edge="1">
          <mxGeometry relative="1" as="geometry">
            <mxPoint x="320" y="72.5" as="targetPoint" />
            <Array as="points">
              <mxPoint x="190" y="73" />
              <mxPoint x="290" y="73" />
            </Array>
          </mxGeometry>
        </mxCell>
        <mxCell id="XBwy3TFs0vc0ivHND25a-6" value="SimulationPanel" style="swimlane;fontStyle=0;childLayout=stackLayout;horizontal=1;startSize=26;fillColor=none;horizontalStack=0;resizeParent=1;resizeParentMax=0;resizeLast=0;collapsible=1;marginBottom=0;" parent="XBwy3TFs0vc0ivHND25a-1" vertex="1">
          <mxGeometry x="120" y="190" width="140" height="30" as="geometry" />
        </mxCell>
        <mxCell id="m9F4L__nE2iXAKgSJBw7-2" style="edgeStyle=orthogonalEdgeStyle;rounded=0;orthogonalLoop=1;jettySize=auto;html=1;entryX=1;entryY=0.5;entryDx=0;entryDy=0;endArrow=none;endFill=0;" parent="XBwy3TFs0vc0ivHND25a-1" source="XBwy3TFs0vc0ivHND25a-18" target="XBwy3TFs0vc0ivHND25a-6" edge="1">
          <mxGeometry relative="1" as="geometry" />
        </mxCell>
        <mxCell id="XBwy3TFs0vc0ivHND25a-18" value="Repaint" style="swimlane;fontStyle=0;childLayout=stackLayout;horizontal=1;startSize=26;fillColor=none;horizontalStack=0;resizeParent=1;resizeParentMax=0;resizeLast=0;collapsible=1;marginBottom=0;" parent="XBwy3TFs0vc0ivHND25a-1" vertex="1">
          <mxGeometry x="520" y="187.5" width="140" height="35" as="geometry" />
        </mxCell>
        <mxCell id="hAhTcIGKQY1FWxuaEeUd-0" value="&lt;p style=&quot;margin: 0px ; margin-top: 4px ; text-align: center&quot;&gt;&lt;i&gt;&amp;lt;&amp;lt;Interface&amp;gt;&amp;gt;&lt;/i&gt;&lt;br&gt;&lt;b&gt;ViewController&lt;/b&gt;&lt;/p&gt;&lt;p style=&quot;margin: 0px ; margin-left: 4px&quot;&gt;&lt;br&gt;&lt;/p&gt;&lt;hr size=&quot;1&quot;&gt;&lt;p style=&quot;margin: 0px ; margin-left: 4px&quot;&gt;&lt;br&gt;&lt;/p&gt;" style="verticalAlign=top;align=left;overflow=fill;fontSize=12;fontFamily=Helvetica;html=1;" parent="XBwy3TFs0vc0ivHND25a-1" vertex="1">
          <mxGeometry x="319" y="30" width="190" height="60" as="geometry" />
        </mxCell>
        <mxCell id="cVRDJzBWrfUjVtCzCYg--0" value="ViewControllerImpl" style="swimlane;fontStyle=0;childLayout=stackLayout;horizontal=1;startSize=26;fillColor=none;horizontalStack=0;resizeParent=1;resizeParentMax=0;resizeLast=0;collapsible=1;marginBottom=0;" parent="XBwy3TFs0vc0ivHND25a-1" vertex="1">
          <mxGeometry x="590" y="30" width="140" height="52" as="geometry" />
        </mxCell>
        <mxCell id="cVRDJzBWrfUjVtCzCYg--4" value="" style="endArrow=block;dashed=1;endFill=0;endSize=12;html=1;rounded=0;" parent="XBwy3TFs0vc0ivHND25a-1" edge="1">
          <mxGeometry width="160" relative="1" as="geometry">
            <mxPoint x="509" y="50" as="sourcePoint" />
            <mxPoint x="589" y="50" as="targetPoint" />
          </mxGeometry>
        </mxCell>
      </root>
    </mxGraphModel>
  </diagram>
  <diagram id="8l-_iYYZNNaknM4BtY3J" name="Page-13">
    <mxGraphModel dx="782" dy="436" grid="1" gridSize="10" guides="1" tooltips="1" connect="1" arrows="1" fold="1" page="1" pageScale="1" pageWidth="827" pageHeight="1169" math="0" shadow="0">
      <root>
        <mxCell id="Ez1AMekf0fJRxHvY2hUj-0" />
        <mxCell id="Ez1AMekf0fJRxHvY2hUj-1" parent="Ez1AMekf0fJRxHvY2hUj-0" />
        <mxCell id="Ez1AMekf0fJRxHvY2hUj-2" value="&lt;p style=&quot;margin: 0px ; margin-top: 4px ; text-align: center&quot;&gt;&lt;i&gt;&amp;lt;&amp;lt;Interface&amp;gt;&amp;gt;&lt;/i&gt;&lt;br&gt;&lt;b&gt;ViewController&lt;/b&gt;&lt;/p&gt;&lt;hr size=&quot;1&quot;&gt;&lt;p style=&quot;margin: 0px ; margin-left: 4px&quot;&gt;&lt;/p&gt;&lt;p style=&quot;margin: 0px ; margin-left: 4px&quot;&gt;&amp;nbsp;+Map&amp;lt;PersonTicket, Position&amp;lt;Integer, Integer&amp;gt;&amp;gt; getPeopleMap() : Map&amp;lt;&amp;gt;&lt;/p&gt;&lt;p style=&quot;margin: 0px ; margin-left: 4px&quot;&gt;&lt;span&gt;+ SimulationPanel getSimPanel() : int&lt;/span&gt;&lt;br&gt;&lt;/p&gt;&lt;p style=&quot;margin: 0px ; margin-left: 4px&quot;&gt;+ ActivityInsertion getModelActivity() : int&lt;/p&gt;&lt;p style=&quot;margin: 0px ; margin-left: 4px&quot;&gt;&lt;span&gt;+void stop() : void&lt;/span&gt;&lt;br&gt;&lt;/p&gt;" style="verticalAlign=top;align=left;overflow=fill;fontSize=12;fontFamily=Helvetica;html=1;" parent="Ez1AMekf0fJRxHvY2hUj-1" vertex="1">
          <mxGeometry x="340" y="90" width="410" height="110" as="geometry" />
        </mxCell>
      </root>
    </mxGraphModel>
  </diagram>
</mxfile>
